<?xml version="1.0" standalone="no"?>
<!DOCTYPE svg PUBLIC "-//W3C//DTD SVG 1.1//EN" "http://www.w3.org/Graphics/SVG/1.1/DTD/svg11.dtd" >
<!--
2013-9-30: Created.
-->
<svg>
<metadata>
Created by iconfont
</metadata>
<defs>

<font id="iconfont" horiz-adv-x="1024" >
  <font-face
    font-family="iconfont"
    font-weight="500"
    font-stretch="normal"
    units-per-em="1024"
    ascent="896"
    descent="-128"
  />
    <missing-glyph />
    
    <glyph glyph-name="duoren-renqun" unicode="&#59241;" d="M513.59 594.21c64.7 0 117.34 52.63 117.34 117.33S578.29 828.87 513.59 828.87s-117.33-52.64-117.33-117.34 52.63-117.32 117.33-117.32z m0 161.87c24.56 0 44.55-19.99 44.55-44.55S538.15 667 513.59 667s-44.53 19.97-44.53 44.53 19.97 44.55 44.53 44.55zM237.77 739.41c-64.7 0-117.34-52.63-117.34-117.33s52.64-117.34 117.34-117.34S355.1 557.39 355.1 622.09s-52.63 117.32-117.33 117.32z m0-161.87c-24.56 0-44.55 19.99-44.55 44.55s19.99 44.53 44.55 44.53 44.53-19.97 44.53-44.53-19.97-44.55-44.53-44.55zM906.76 622.09c0 64.7-52.64 117.33-117.34 117.33s-117.34-52.63-117.34-117.33 52.64-117.34 117.34-117.34 117.34 52.64 117.34 117.34z m-161.88 0c0 24.56 19.99 44.53 44.55 44.53s44.55-19.97 44.55-44.53-19.99-44.55-44.55-44.55-44.55 19.99-44.55 44.55zM605.96 565.55H414.68c-45.97 0-83.36-37.39-83.36-83.36v-245.11c0-40.97 29.71-75.14 68.73-82.07v-178.13c0-20.11 16.29-36.4 36.4-36.4s36.4 16.29 36.4 36.4V179.24c0 26.06-21.21 47.27-47.27 47.27h-10.89c-5.83 0-10.57 4.74-10.57 10.57V482.19c0 5.83 4.74 10.57 10.57 10.57h191.28c5.83 0 10.57-4.74 10.57-10.57v-245.11c0-5.83-4.74-10.57-10.57-10.57h-9.16c-25.76 0-46.7-20.95-46.7-46.7v-204.54c0-20.11 16.29-36.4 36.4-36.4s36.4 16.29 36.4 36.4V155.45c37.88 7.84 66.43 41.47 66.43 81.63V482.19c-0.03 45.97-37.42 83.36-83.38 83.36zM841.37 477.85h-71.51c-20.11 0-36.4-16.29-36.4-36.4s16.29-36.4 36.4-36.4h71.51c6.48 0 9.81-2.55 10.57-2.74l0.26-202.97c-0.6-1.07-4.28-3.99-10.83-3.99h-9.16c-25.76 0-46.7-20.18-46.7-44.99v-170.43c0-20.11 16.29-36.4 36.4-36.4s36.4 16.29 36.4 36.4v144.2c37.88 7.11 66.43 37.57 66.43 73.96V402.33c-0.01 41.64-37.41 75.52-83.37 75.52zM254.34 477.85h-71.51c-45.97 0-83.36-33.88-83.36-75.53V198.1c0-36.4 28.55-66.86 66.43-73.96v-144.18c0-20.11 16.29-36.4 36.4-36.4s36.4 16.29 36.4 36.4V150.38c0 24.81-20.95 44.99-46.7 44.99h-9.16c-6.48 0-10.17 2.78-10.57 2.74L172 401.07c0.6 1.07 4.28 3.99 10.83 3.99h71.51c20.11 0 36.4 16.29 36.4 36.4 0 20.1-16.29 36.39-36.4 36.39z"  horiz-adv-x="1024" />

    
    <glyph glyph-name="geren" unicode="&#58992;" d="M535.6 384.2c95.1 10.5 172.1 87.5 182.6 182.6C732 692 634.4 797.8 512 797.8c-114.6 0-207.5-92.8-207.5-207.4v-0.1c0-122.4 105.9-219.9 231.1-206.1zM512 323.6c-138.5 0-415-79.4-415-237.1v-88.9c0-16.4 13.3-29.6 29.6-29.6h770.7c16.4 0 29.6 13.3 29.6 29.6v88.9C927 244.1 650.5 323.6 512 323.6z"  horiz-adv-x="1024" />

    
    <glyph glyph-name="c" unicode="&#59011;" d="M479.797566 895.897669c-264.97286 0-479.777111-214.776621-479.777111-479.777111 0-264.942161 214.804251-479.781204 479.777111-479.781204 264.967744 0 479.806787 214.839043 479.806787 479.781204C959.604353 681.121048 744.765309 895.897669 479.797566 895.897669zM479.797566 0.310318c-229.640144 0-415.806147 186.160887-415.806147 415.810241 0 229.646284 186.166003 415.807171 415.806147 415.807171 229.668797 0 415.835823-186.160887 415.835823-415.807171C895.633389 186.471205 709.467385 0.310318 479.797566 0.310318zM564.474107 276.118967c-21.23872-17.681708-47.101761-26.486234-77.617775-26.486234-25.111934 0-48.477085 6.557346-70.091358 19.428491-21.490453 12.932544-37.358863 32.484855-47.602158 58.595536-10.18599 26.173103-15.306614 56.725956-15.306614 91.777263 0 27.172873 4.312212 53.597709 12.932544 79.148641 8.619308 25.611308 23.48897 45.979194 44.855604 61.22441 21.236674 15.116279 47.724954 22.675442 79.462796 22.675442 27.51568 0 50.376341-6.811126 68.559469-20.428262 18.176988-13.747095 32.04688-35.606962 41.60456-65.531506l53.66013 12.679787c-11.0558 37.983079-30.547737 67.469648-58.72038 88.458681-28.109198 20.990057-62.784952 31.608905-104.042611 31.608905-36.360116 0-69.6585-8.366551-99.892081-24.987091-30.300097-16.555048-53.597709-40.851407-70.028936-72.77549-16.430204-31.984459-24.617677-69.405743-24.617677-112.38665 0-39.295981 7.216355-76.154447 21.804608-110.391203 14.494109-34.358529 35.735899-60.533678 63.532989-78.585823 27.801183-18.116613 63.907519-27.111474 108.387569-27.111474 42.885739 0 79.244832 11.742439 108.917642 35.229362 29.738301 23.553439 50.291406 57.726749 61.72276 102.516862l-54.54222 13.746072C599.957249 319.846888 585.5931 293.672762 564.474107 276.118967z"  horiz-adv-x="1024" />

    
    <glyph glyph-name="CSS" unicode="&#58909;" d="M110.592 787.456h808.96v-808.96H110.592zM944.128 896H83.968C38.912 896 2.048 859.136 2.048 814.08v-143.36h61.44V793.6c0 22.528 18.432 40.96 40.96 40.96h819.2c22.528 0 40.96-18.432 40.96-40.96v-122.88h61.44V814.08c0 45.056-36.864 81.92-81.92 81.92z m20.48-921.6c0-22.528-18.432-40.96-40.96-40.96H104.448c-22.528 0-40.96 18.432-40.96 40.96v122.88H2.048v-143.36c0-45.056 36.864-81.92 81.92-81.92h860.16c45.056 0 81.92 36.864 81.92 81.92v143.36h-61.44v-122.88zM63.488 609.28h901.12v-450.56H63.488zM38.912 529.408c0-36.864 4.096-61.44 4.096-94.208 0-18.432-10.24-36.864-43.008-38.912v-30.72c34.816 0 43.008-20.48 43.008-38.912 0-32.768-4.096-57.344-4.096-94.208 0-53.248 18.432-69.632 61.44-69.632H124.928v28.672h-10.24c-26.624 0-32.768 10.24-32.768 43.008 0 28.672 2.048 55.296 2.048 88.064 0 34.816-10.24 51.2-32.768 55.296v2.048c24.576 8.192 32.768 22.528 32.768 57.344 0 32.768-2.048 59.392-2.048 88.064 0 30.72 6.144 43.008 32.768 43.008H124.928v28.672H100.352c-40.96 2.048-61.44-14.336-61.44-67.584z m534.528-129.024l-45.056 18.432c-26.624 10.24-53.248 22.528-53.248 49.152 0 26.624 22.528 43.008 55.296 43.008 28.672 0 53.248-10.24 73.728-30.72l26.624 32.768c-24.576 26.624-61.44 40.96-100.352 40.96-63.488 0-108.544-38.912-108.544-92.16 0-49.152 34.816-73.728 67.584-86.016l45.056-20.48c30.72-14.336 53.248-22.528 53.248-53.248 0-28.672-22.528-47.104-63.488-47.104-32.768 0-63.488 14.336-88.064 38.912l-26.624-30.72-22.528 26.624c-20.48-22.528-43.008-34.816-73.728-34.816-59.392 0-96.256 49.152-96.256 126.976 0 77.824 38.912 124.928 96.256 124.928 26.624 0 47.104-12.288 65.536-30.72l28.672 32.768c-20.48 22.528-53.248 40.96-94.208 40.96-81.92 8.192-147.456-57.344-147.456-165.888s63.488-169.984 147.456-169.984c40.96 0 73.728 16.384 98.304 43.008 30.72-26.624 69.632-43.008 112.64-43.008 71.68 0 116.736 43.008 116.736 96.256 0 49.152-28.672 71.68-67.584 90.112z m229.376 0l-45.056 18.432c-26.624 10.24-53.248 22.528-53.248 49.152 0 26.624 22.528 43.008 55.296 43.008 28.672 0 53.248-10.24 73.728-30.72l26.624 32.768c-24.576 26.624-61.44 40.96-100.352 40.96-63.488 0-108.544-38.912-108.544-92.16 0-49.152 34.816-73.728 67.584-86.016l45.056-20.48c30.72-14.336 53.248-22.528 53.248-53.248 0-28.672-22.528-47.104-63.488-47.104-32.768 0-63.488 14.336-88.064 38.912L634.88 261.12c30.72-30.72 71.68-49.152 118.784-49.152 71.68 0 116.736 43.008 116.736 96.256 0 51.2-28.672 73.728-67.584 92.16z m182.272 34.816c0 32.768 4.096 57.344 4.096 94.208 0 53.248-18.432 69.632-61.44 69.632H903.168v-28.672h12.288c26.624 0 32.768-12.288 32.768-43.008 0-28.672-2.048-55.296-2.048-88.064 0-34.816 8.192-51.2 32.768-55.296v-2.048c-26.624-8.192-34.816-24.576-34.816-59.392 0-32.768 2.048-59.392 2.048-88.064 0-30.72-6.144-43.008-32.768-43.008H903.168v-28.672h24.576c40.96 0 61.44 16.384 61.44 69.632 0 36.864-4.096 61.44-4.096 94.208 0 18.432 10.24 38.912 43.008 38.912v30.72c-34.816 0-43.008 20.48-43.008 38.912z"  horiz-adv-x="1028" />

    
    <glyph glyph-name="BAT" unicode="&#58899;" d="M354.40128 896c-87.04 0-157.44-70.55872-157.44-157.59872v-275.68128H78.72c-21.6576 0-39.36256-17.69984-39.36256-39.36256v-236.31872c0-21.6576 17.69984-39.35744 39.36256-39.35744h118.24128v-118.08256c0-87.04 70.4-157.59872 157.44-157.59872h472.63744c87.04 0 157.59872 70.55872 157.59872 157.59872V580.9664c0 41.74848-38.9888 81.93024-107.52 149.27872l-29.11744 29.12256L818.87744 788.48C751.5392 857.0112 711.39328 896 669.59872 896H354.4064z m0-78.72h287.20128c28.35456-7.0912 27.99616-42.1376 27.99616-76.8v-120.16128c0-21.6576 17.69984-39.35744 39.36256-39.35744h118.07744c39.38816 0 78.87872 0.0256 78.87872-39.36256v-512c0-43.32032-35.55328-78.87872-78.87872-78.87872H354.4064c-43.32544 0-78.72 35.5584-78.72 78.87872v118.08256h393.91744c21.66272 0 39.36256 17.69472 39.36256 39.35744V423.35744c0 21.66272-17.69984 39.36256-39.36256 39.36256H275.68128V738.40128c0 43.32032 35.39456 78.87872 78.72 78.87872z m24.32-427.67872h20.15744l65.28-176.64h-23.04l-19.2 54.71744h-65.28l-19.2-54.71744h-23.04l64.32256 176.64z m-192.96256-0.96256h48c23.04 0 39.04-3.84 48-11.52 9.6-7.04 14.40256-17.92 14.40256-32.64 0-21.76-11.84256-34.56-35.52256-38.4v-0.95744c26.88-4.48 40.32-18.24256 40.32-41.28256 0-15.36-5.12-27.83744-15.36-37.43744-9.6-8.96-23.35744-13.44-41.27744-13.44H185.7536V388.63872z m266.88 0h121.92256v-20.15744h-49.92v-155.52h-22.08256v155.52h-49.92v20.15744z m-244.79744-19.2v-55.68h29.75744c12.8 0 21.76 2.24256 26.88 6.72256 5.76 5.12 8.64256 12.47744 8.64256 22.07744 0 8.96-3.2 15.68256-9.6 20.16256s-16 6.71744-28.8 6.71744h-26.88z m181.43744-3.84c-1.92-8.96-4.79744-18.23744-8.63744-27.83744l-17.28-50.88256h51.84l-18.24256 50.88256c-3.84 10.88-6.4 20.15744-7.68 27.83744zM207.84128 295.5264v-63.36h31.67744c12.8 0 22.08256 2.56 27.84256 7.68 6.4 5.76 9.6 14.08 9.6 24.96 0 10.24-3.2 17.92-9.6 23.04s-16 7.68-28.8 7.68h-30.72z"  horiz-adv-x="1024" />

    
    <glyph glyph-name="SH" unicode="&#58915;" d="M354.40128 896c-87.04 0-157.44-70.55872-157.44-157.59872v-275.68128H78.72c-21.6576 0-39.36256-17.69984-39.36256-39.36256v-236.31872c0-21.6576 17.69984-39.35744 39.36256-39.35744h118.24128v-118.08256c0-87.04 70.4-157.59872 157.44-157.59872h472.63744c87.04 0 157.59872 70.55872 157.59872 157.59872V580.9664c0 41.74848-38.9888 81.93024-107.52 149.27872l-29.11744 29.12256L818.87744 788.48C751.5392 857.0112 711.39328 896 669.59872 896H354.4064z m0-78.72h287.20128c28.35456-7.0912 27.99616-42.1376 27.99616-76.8v-120.16128c0-21.6576 17.69984-39.35744 39.36256-39.35744h118.07744c39.38816 0 78.87872 0.0256 78.87872-39.36256v-512c0-43.32032-35.55328-78.87872-78.87872-78.87872H354.4064c-43.32544 0-78.72 35.5584-78.72 78.87872v118.08256h393.91744c21.66272 0 39.36256 17.69472 39.36256 39.35744V423.35744c0 21.66272-17.69984 39.36256-39.36256 39.36256H275.68128V738.40128c0 43.32032 35.39456 78.87872 78.72 78.87872z m-94.72-426.72128c17.28 0 32.64-3.2 46.08-9.6l-7.68-18.23744c-13.44 5.76-26.24 8.63744-38.4 8.63744-10.24 0-17.92-2.23744-23.04-6.71744s-7.68-10.56256-7.68-18.24256c0-8.96 1.92-15.67744 5.76-20.15744 4.48-3.84 15.03744-9.6 31.67744-17.28 17.28-7.04 28.48256-14.40256 33.60256-22.08256 5.76-7.04 8.63744-16 8.63744-26.88 0-14.72-5.12-26.55744-15.36-35.51744s-24.96-13.44-44.16-13.44c-18.56 0-33.28 2.56-44.16 7.68v21.12c15.36-6.4 30.08-9.6 44.16-9.6 12.8 0 22.08256 2.23744 27.84256 6.71744 6.4 4.48 9.6 11.52 9.6 21.12 0 7.68-2.24256 14.08-6.72256 19.2-3.2 3.2-15.03744 9.28256-35.51744 18.24256-13.44 6.4-23.04 13.44-28.8 21.12s-8.64256 17.59744-8.64256 29.75744c0 13.44 4.48 24.00256 13.44 31.68256 9.6 8.32 22.72256 12.47744 39.36256 12.47744z m84.48-1.92h22.07744v-73.91744h79.68256V388.63872h23.04v-175.67744h-23.04V294.5536H366.2336v-81.59744H344.1664V388.63872z"  horiz-adv-x="1024" />

    
    <glyph glyph-name="cmd" unicode="&#59562;" d="M332.799002 209.918986m-332.799002 0a332.799002 332.799002 0 1 1 665.598003 0 332.799002 332.799002 0 1 1-665.598003 0ZM883.19735-128h-639.99808A141.055577 141.055577 0 0 0 102.399693 12.799578v742.397772A141.055577 141.055577 0 0 0 243.19927 895.996928h516.350451a89.087733 89.087733 0 0 0 63.231811-25.599923l189.695431-189.695431A38.399885 38.399885 0 0 0 1023.996928 652.797658v-639.99808a141.055577 141.055577 0 0 0-140.799578-140.799578zM243.19927 819.197158A63.999808 63.999808 0 0 1 179.199462 755.19735v-742.397772A63.999808 63.999808 0 0 1 243.19927-51.20023h639.99808a63.999808 63.999808 0 0 1 63.999808 63.999808V636.925705l-179.199462 179.199463a12.799962 12.799962 0 0 1-8.447975 3.07199zM246.52726 383.998464c0 73.727779 44.799866 118.015646 102.399693 118.015646a87.039739 87.039739 0 0 0 64.255807-28.671914l-19.455941-22.783932a60.15982 60.15982 0 0 1-44.287867 20.22394c-38.911883 0-66.047802-32.511902-66.047802-85.759743s25.599923-86.52774 65.023805-86.52774a65.791803 65.791803 0 0 1 51.199846 24.063927l18.943943-22.527932a89.087733 89.087733 0 0 0-70.399788-32.511903c-58.111826-0.767998-101.631695 41.727875-101.631696 116.479651zM457.214628 496.894125h40.959877l41.471876-114.175657c5.119985-15.103955 9.727971-30.463909 15.103955-45.823863h1.535995c5.119985 15.359954 9.471972 30.719908 14.847956 45.823863l40.959877 114.175657h40.703878v-226.047322h-33.023901v111.871665c0 20.223939 2.815992 49.407852 4.607986 69.88779l-18.175946-51.199846-40.447878-108.799674h-22.015934l-39.679881 107.775677-17.919946 51.199846c1.535995-20.479939 4.351987-49.663851 4.351987-69.88779v-111.871664h-33.279901zM712.189863 496.894125h58.623825c69.375792 0 109.055673-38.399885 109.055672-112.127663s-39.679881-113.919658-107.263678-113.919659h-60.415819zM767.997696 300.030716c48.383855 0 74.495777 28.671914 74.495777 84.735746s-25.599923 83.19975-74.495777 83.19975h-20.479939v-167.935496z"  horiz-adv-x="1024" />

    
    <glyph glyph-name="cpp" unicode="&#58906;" d="M403.456 15.36c-202.752 0-368.64 165.888-368.64 368.64s165.888 368.64 368.64 368.64c116.736 0 223.232-54.272 292.864-145.408l-133.12-78.848c-40.96 44.032-98.304 70.656-158.72 70.656-117.76 0-215.04-96.256-215.04-215.04s96.256-215.04 215.04-215.04c60.416 0 117.76 26.624 158.72 70.656l134.144-78.848C628.736 69.632 520.192 15.36 403.456 15.36zM772.096 353.28h-60.416v-61.44h-62.464v61.44h-60.416v61.44h60.416v61.44h62.464v-61.44h60.416v-61.44z m217.088 0h-62.464v-61.44h-60.416v61.44h-62.464v61.44h62.464v61.44h60.416v-61.44h62.464v-61.44z"  horiz-adv-x="1024" />

    
    <glyph glyph-name="java" unicode="&#58938;" d="M558.08 423.936c48.128-53.248-13.312-103.424-13.312-103.424s119.808 61.44 65.536 139.264c-51.2 71.68-91.136 107.52 122.88 232.448 0-1.024-335.872-86.016-175.104-268.288M610.304 890.88s101.376-101.376-96.256-258.048C356.352 506.88 478.208 435.2 514.048 352.256 420.864 436.224 354.304 509.952 399.36 578.56 463.872 679.936 651.264 729.088 610.304 890.88M720.896 138.24c183.296 95.232 98.304 188.416 39.936 175.104-15.36-3.072-21.504-5.12-21.504-5.12s5.12 8.192 16.384 11.264c117.76 40.96 207.872-120.832-37.888-186.368-1.024 0 2.048 3.072 3.072 5.12m-337.92-38.912s-37.888-21.504 26.624-29.696c76.8-8.192 117.76-8.192 202.752 8.192 0 0 23.552-15.36 53.248-26.624-191.488-80.896-433.152 5.12-282.624 48.128m-23.552 106.496s-43.008-31.744 23.552-37.888c82.944-8.192 149.504-10.24 261.12 13.312 0 0 16.384-16.384 40.96-24.576-231.424-68.608-490.496-5.12-325.632 49.152M811.008 19.456s27.648-23.552-31.744-40.96c-111.616-34.816-460.8-45.056-558.08-2.048-34.816 15.36 31.744 35.84 51.2 40.96 21.504 5.12 34.816 3.072 34.816 3.072-38.912 28.672-251.904-52.224-107.52-75.776 390.144-62.464 712.704 28.672 611.328 74.752M400.384 317.44s-178.176-43.008-63.488-56.32c49.152-6.144 146.432-5.12 235.52 3.072 73.728 6.144 147.456 19.456 147.456 19.456s-26.624-11.264-45.056-24.576c-181.248-48.128-530.432-26.624-430.08 23.552 88.064 39.936 155.648 34.816 155.648 34.816M418.816-119.808c176.128-11.264 446.464 6.144 453.632 90.112 0 0-13.312-31.744-146.432-56.32-150.528-27.648-336.896-24.576-446.464-6.144 2.048-1.024 24.576-20.48 139.264-27.648"  horiz-adv-x="1024" />

    
    <glyph glyph-name="ruby" unicode="&#59022;" d="M682.666667 512h128l-213.333334-298.666667m-170.666666 298.666667h170.666666l-85.333333-341.333333M213.333333 512h128l85.333334-298.666667m213.333333 512h85.333333l85.333334-128h-128m-213.333334 128h85.333334l42.666666-128h-170.666666M298.666667 725.333333h85.333333L341.333333 597.333333H213.333333m42.666667 213.333334L85.333333 554.666667l426.666667-597.333334L938.666667 554.666667l-170.666667 256H256z"  horiz-adv-x="1024" />

    
    <glyph glyph-name="python" unicode="&#59024;" d="M420.693333 810.666667C353.28 810.666667 298.666667 756.053333 298.666667 688.64v-71.68h183.04c16.64 0 30.293333-24.32 30.293333-40.96H207.36C139.946667 576 85.333333 521.386667 85.333333 453.973333v-161.322666c0-67.413333 54.613333-122.026667 122.026667-122.026667h50.346667v114.346667c0 67.413333 54.186667 122.026667 121.6 122.026666h224c67.413333 0 122.026667 54.229333 122.026666 121.642667V688.64C725.333333 756.053333 670.72 810.666667 603.306667 810.666667z m-30.72-68.693334c17.066667 0 30.72-5.12 30.72-30.293333s-13.653333-38.016-30.72-38.016c-16.64 0-30.293333 12.8-30.293333 37.973333s13.653333 30.336 30.293333 30.336zM766.250667 597.333333v-114.346666a121.6 121.6 0 0 0-121.6-121.984H420.693333A121.6 121.6 0 0 1 298.666667 239.402667v-160a122.026667 122.026667 0 0 1 122.026666-122.026667h182.613334A122.026667 122.026667 0 0 1 725.333333 79.36v71.68h-183.082666c-16.64 0-30.250667 24.32-30.250667 40.96h304.64A122.026667 122.026667 0 0 1 938.666667 314.026667v161.28a122.026667 122.026667 0 0 1-122.026667 122.026666zM354.986667 404.778667l-0.170667-0.170667c0.512 0.085333 1.066667 0.042667 1.621333 0.170667z m279.04-310.442667c16.64 0 30.293333-12.8 30.293333-37.973333a30.293333 30.293333 0 0 0-30.293333-30.293334c-17.066667 0-30.72 5.12-30.72 30.293334s13.653333 37.973333 30.72 37.973333z"  horiz-adv-x="1024" />

    
    <glyph glyph-name="vue" unicode="&#59065;" d="M76.416 731.690667L512-20.096 947.584 728.064v3.626667H778.24L514.56 278.741333 251.989333 731.648zM252.032 731.690667l262.485333-452.992L778.24 731.690667h-158.848L515.584 553.386667 412.16 731.733333z"  horiz-adv-x="1024" />

    
    <glyph glyph-name="gonggongpeizhi" unicode="&#58886;" d="M512 99.328 200.704 99.328c0 61.44 12.288 104.448 61.44 122.88 49.152 18.432 116.736 43.008 153.6 73.728 43.008 36.864 30.72 36.864 20.48 49.152-14.336 16.384-16.384 59.392-16.384 59.392-43.008 12.288-32.768 83.968-24.576 83.968 10.24 0 10.24 4.096 4.096 40.96-8.192 47.104-4.096 73.728 18.432 104.448 22.528 30.72 92.16 32.768 92.16 32.768l0 0c0 0 69.632-4.096 92.16-32.768 22.528-30.72 26.624-55.296 18.432-104.448-6.144-38.912-6.144-40.96 4.096-40.96 10.24 0 20.48-71.68-24.576-83.968 0 0-2.048-43.008-16.384-59.392-10.24-12.288-22.528-12.288 20.48-49.152 36.864-32.768 104.448-57.344 153.6-73.728 49.152-18.432 61.44-61.44 61.44-122.88L512 99.328 512 99.328zM845.824 132.096l102.4 0c0 45.056-8.192 77.824-45.056 90.112-36.864 12.288-86.016 30.72-114.688 55.296-32.768 26.624-22.528 26.624-16.384 36.864 10.24 12.288 12.288 43.008 12.288 43.008 32.768 8.192 24.576 61.44 18.432 61.44s-8.192 2.048-2.048 30.72c6.144 34.816 4.096 55.296-14.336 75.776-16.384 22.528-67.584 24.576-67.584 24.576l0 0c0 0-51.2-2.048-67.584-24.576-4.096-4.096-6.144-10.24-10.24-14.336 0 0 20.48-12.288 22.528-30.72 2.048-20.48 2.048-38.912-8.192-65.536-12.288-26.624-14.336-43.008 8.192-63.488 12.288-10.24 4.096-57.344 4.096-57.344s59.392-30.72 122.88-53.248S845.824 132.096 845.824 132.096zM176.128 132.096l-102.4 0c0 45.056 8.192 77.824 45.056 90.112 36.864 12.288 86.016 30.72 114.688 55.296 32.768 26.624 22.528 26.624 16.384 36.864-10.24 12.288-12.288 43.008-12.288 43.008-32.768 8.192-24.576 61.44-18.432 61.44s8.192 2.048 2.048 30.72c-6.144 34.816-4.096 55.296 14.336 75.776 16.384 22.528 67.584 24.576 67.584 24.576l0 0c0 0 51.2-2.048 67.584-24.576 4.096-4.096 6.144-10.24 10.24-14.336 0 0-20.48-12.288-22.528-30.72-2.048-20.48-2.048-38.912 8.192-65.536s14.336-43.008-8.192-63.488c-12.288-10.24-4.096-57.344-4.096-57.344s-59.392-30.72-122.88-53.248S176.128 132.096 176.128 132.096z"  horiz-adv-x="1024" />

    
    <glyph glyph-name="gonggong-shaixuan" unicode="&#58974;" d="M816 832H204.8C144 832 96 784 96 723.2c0-25.6 9.6-51.2 25.6-70.4 0-3.2 3.2-3.2 3.2-6.4l240-240v-252.8c0-9.6 3.2-16 9.6-22.4L592-54.4c6.4-3.2 12.8-6.4 19.2-6.4 9.6 0 16 3.2 22.4 9.6 6.4 6.4 6.4 16 6.4 22.4V396.8l256 249.6 3.2 3.2c16 19.2 25.6 44.8 25.6 70.4 0 64-48 112-108.8 112z m35.2-140.8s-3.2-3.2 0 0L592 432c-6.4-6.4-9.6-12.8-9.6-22.4V32l-156.8 131.2V416c0 9.6-3.2 16-9.6 22.4L172.8 688l-3.2 3.2c-9.6 9.6-12.8 19.2-12.8 32 0 25.6 22.4 48 48 48H816c25.6 0 48-22.4 48-48 0-12.8-6.4-22.4-12.8-32z"  horiz-adv-x="1024" />

    
    <glyph glyph-name="xmind" unicode="&#58928;" d="M862.87-61H161.13a51.4 51.4 0 0 0-51.34 51.35v787.3A51.4 51.4 0 0 0 161.13 829h463.36a33.66 33.66 0 0 0 24-9.92l255.79-255.84a33.7 33.7 0 0 0 9.93-24v-548.89A51.4 51.4 0 0 0 862.87-61zM624.25 794.87l-463.12-0.1A17.14 17.14 0 0 1 144 777.65v-787.3a17.14 17.14 0 0 1 17.11-17.12h701.76A17.14 17.14 0 0 1 880-9.65V539.28zM665.67 546.23h231.42L631.44 811.88v-231.42a34.33 34.33 0 0 1 34.23-34.23zM897.1 529.11H665.67a51.41 51.41 0 0 0-51.34 51.35V811.88A17.1 17.1 0 0 0 643.54 824L909.2 558.33a17.12 17.12 0 0 0-12.1-29.22zM648.56 770.56v-190.1a17.14 17.14 0 0 1 17.11-17.12h190.11zM298.13 271.2a298.71 298.71 0 0 1-15.64 25.69q-9.44 14-19.72 27.08-4.26-5.12-9.26-12.19t-10-14.45q-5-7.38-9.25-14.25t-6.82-11.88h-30.8q9.84 17.79 22.73 36.52t28 39.24l-48.59 72.51h32.1l32.45-48.68 32.58 48.68h30.81l-48-71.73q16.62-21.74 29.45-41.12t21.57-35.42zM367 419.47q4.69-8.13 10.48-19.9t11.77-24.72q6-12.93 11.87-26.3T412 323.83q4.94 11.34 10.7 24.72t11.77 26.3q6 13 11.76 24.72t10.49 19.9H481q1.95-16.26 3.7-34.55t3.16-37.44q1.41-19.15 2.61-38.51t2.08-37.77H466q-0.86 25.89-2.07 53.28t-3.59 53q-2.35-4.92-5.57-11.77t-6.84-14.86q-3.65-8-7.38-16.59t-7.28-16.58q-3.53-8-6.52-15c-2-4.64-3.71-8.59-5.14-11.88h-20.13q-2.14 4.93-5.14 12t-6.51 15.08q-3.54 8-7.28 16.58T375.17 351l-6.85 14.87q-3.21 7-5.56 11.66-2.4-25.68-3.6-53t-2.07-53.28h-26.53q0.87 18.4 2.07 38.09t2.62 39q1.41 19.35 3.15 37.55t3.71 33.59zM507.7 419.47h26.95V271.2H507.7zM654 271.2q-7.28 12.19-16.26 26.21t-18.61 28.24q-9.63 14.22-19.58 27.6t-18.93 24.07V271.2h-26.5V419.47h22q8.55-9 18.39-21.29t19.79-25.56q10-13.29 19.26-26.65T650.18 321v98.47h26.74V271.2zM822.19 345.44q0-19.26-6-33.48a63.44 63.44 0 0 0-17-23.75 70.91 70.91 0 0 0-26.53-14.12 120.74 120.74 0 0 0-34.34-4.6q-9 0-20.32 0.75a137.13 137.13 0 0 0-21.61 3.1v144a129 129 0 0 0 21.82 3q11.56 0.65 20.54 0.64a124.16 124.16 0 0 0 34-4.38 70.24 70.24 0 0 0 26.42-13.69 61.6 61.6 0 0 0 17-23.54q6.02-14.24 6.02-33.93z m-98.85-52c1.58-0.15 3.65-0.25 6.21-0.33s6.06-0.11 10.48-0.11q27.16 0 40.54 13.81t13.37 38.61q0 25.24-13 38.73t-40.44 13.47a160.08 160.08 0 0 1-17.12-0.63z"  horiz-adv-x="1024" />

    
    <glyph glyph-name="liuchengtu" unicode="&#59200;" d="M782.72-51.84h-640c-24.32 0-44.16 19.84-44.16 44.16 0 4.48 3.2 7.68 7.68 7.68h65.92L170.88 838.4c0 1.92 0.64 3.84 1.92 5.12 1.28 1.28 3.2 1.92 5.12 1.92H819.2c4.48 0 7.68-3.2 7.68-7.68v-846.08c0-23.68-19.84-43.52-44.16-43.52zM186.88 0h559.36c4.48 0 7.68-3.2 7.68-7.68 0-16 12.8-29.44 29.44-29.44 16 0 29.44 12.8 29.44 29.44v838.4H186.24l0.64-830.72z m-72.96-15.36c3.2-12.16 14.72-21.76 28.16-21.76H748.8c-5.12 5.76-8.96 13.44-10.24 21.76H113.92zM659.84 588.8c-35.84 0-96 10.24-96 49.28 0 45.44 49.92 61.44 92.16 61.44 10.88 0 22.4-1.28 32-3.2 16.64-3.2 67.2-14.08 67.2-45.44 0-19.2-24.32-62.08-95.36-62.08z m-3.84 95.36c-35.84 0-77.44-12.16-77.44-46.08 0-24.96 49.92-33.92 81.28-33.92 61.44 0 80.64 33.92 80.64 46.72 0 8.96-9.6 21.12-55.04 30.72-9.6 1.92-19.84 2.56-29.44 2.56zM289.28 558.72c-28.16 0-48 20.48-48 39.68 0 17.28 14.08 33.28 32 36.48 3.84 0.64 7.68 1.28 11.52 1.28 26.88 0 46.72-16 46.72-37.76 0.64-22.4-17.92-39.68-42.24-39.68z m-4.48 62.08c-3.2 0-5.76 0-8.96-0.64-12.16-1.92-19.84-12.8-19.84-21.76 0-10.88 14.72-24.32 32.64-24.32 16 0 27.52 10.24 27.52 23.68 0.64 15.36-16 23.04-31.36 23.04zM346.24 216.96c-74.24 0-114.56 43.52-114.56 65.92 0 38.4 66.56 52.48 108.8 52.48 18.56 0 39.04-1.92 60.16-6.4 27.52-5.76 57.6-23.68 57.6-49.92 0-35.2-48-62.08-112-62.08z m-5.12 103.68c-38.4 0-94.08-13.44-94.08-37.76 0-12.8 33.92-51.2 99.2-51.2 60.8 0 96.64 24.32 96.64 47.36 0 16.64-23.04 30.08-45.44 34.56-19.2 4.48-38.4 7.04-56.32 7.04zM490.24 53.12c-21.12 0-126.72 3.2-126.72 64.64 0 50.56 72.96 69.12 141.44 69.12 16.64 0 33.92-1.28 51.2-4.48 29.44-5.12 65.28-23.68 69.12-57.6v-4.48c0-53.12-84.48-67.2-135.04-67.2z m14.72 118.4c-62.72 0-126.08-16.64-126.08-53.76 0-39.04 70.4-49.92 111.36-49.92 48 0 119.68 14.08 119.68 51.84v3.2c-2.56 23.68-30.08 39.04-56.32 44.16-16 3.2-32.64 4.48-48.64 4.48zM665.6 204.16c-51.84 0-82.56 17.92-82.56 47.36 0 37.76 47.36 54.4 94.72 54.4 16.64 0 33.28-1.92 46.08-6.4 19.2-5.76 44.8-16.64 44.8-39.68 0-38.4-53.12-55.68-103.04-55.68z m12.16 86.4c-38.4 0-80-12.16-80-39.04 0-30.72 56.32-32 67.2-32 42.88 0 88.32 14.08 88.32 40.96 0 9.6-10.88 17.92-34.56 24.96-10.88 3.2-25.6 5.12-40.96 5.12zM654.72 289.28c-3.2 0-6.4 1.92-7.04 5.12-11.52 33.92-30.08 65.28-50.56 100.48-1.92 3.84-1.28 8.32 2.56 10.24 3.84 1.92 8.32 1.28 10.24-2.56 21.76-35.84 40.32-67.84 52.48-103.04 1.28-3.84-0.64-8.32-4.48-9.6-1.28-0.64-2.56-0.64-3.2-0.64zM652.8 291.84c-5.12 0-10.88 4.48-27.52 16-3.84 3.2-8.96 6.4-14.08 10.24-3.2 2.56-4.48 7.04-1.92 10.24 2.56 3.2 7.04 4.48 10.24 1.92 5.76-3.84 10.24-7.04 14.72-10.24 5.76-3.84 10.88-7.68 14.08-10.24 0.64 7.68 2.56 19.84 12.16 33.92 2.56 3.2 7.04 4.48 10.24 1.92 3.2-2.56 4.48-7.04 1.92-10.24-8.32-12.8-9.6-23.04-9.6-29.44-0.64-5.12-0.64-10.88-6.4-13.44-1.28 0-2.56-0.64-3.84-0.64zM582.4 529.92c-1.28 0-2.56 0-3.84 1.28-3.84 1.92-5.12 6.4-2.56 10.24 10.88 19.2 23.04 38.4 35.2 56.32l4.48 7.04c2.56 3.2 7.04 4.48 10.24 1.92 3.2-2.56 4.48-7.04 1.92-10.24l-4.48-7.04c-12.16-17.92-24.32-37.12-34.56-55.68-1.28-2.56-3.84-3.84-6.4-3.84zM259.84 613.12c-1.92 0-3.84 0.64-5.76 2.56-9.6 10.24-15.36 24.96-15.36 40.96 0 22.4 9.6 40.32 30.08 55.68 3.2 2.56 8.32 1.92 10.88-1.28 2.56-3.2 1.92-8.32-1.28-10.88-16.64-12.8-24.32-26.24-24.32-43.52 0-12.16 3.84-23.04 10.88-30.08 3.2-3.2 2.56-7.68 0-10.88-1.28-1.92-3.2-2.56-5.12-2.56zM378.88 514.56c-1.28 0-3.2 0.64-4.48 1.28-10.24 7.68-21.76 14.72-32.64 22.4-12.8 8.32-26.24 17.28-38.4 26.88-3.2 2.56-3.84 7.04-1.28 10.88 2.56 3.2 7.04 3.84 10.88 1.28 12.16-8.96 25.6-17.92 38.4-26.24 10.88-7.04 21.76-14.72 32.64-22.4 3.2-2.56 4.48-7.04 1.92-10.88-2.56-1.92-4.48-3.2-7.04-3.2zM487.68 537.6c-3.2 0-5.76 1.92-7.04 4.48-8.32 21.12-19.2 42.24-30.08 62.72-7.68 15.36-16 31.36-23.68 47.36-1.92 3.84 0 8.32 3.84 10.24 3.84 1.92 8.32 0 10.24-3.84 7.04-15.36 15.36-31.36 23.04-46.72 10.88-20.48 21.76-42.24 30.72-64 1.28-3.84-0.64-8.32-4.48-9.6-0.64-0.64-1.28-0.64-2.56-0.64zM430.08 608c-4.48 0-7.68 3.2-7.68 7.68 0 33.92 1.92 43.52 10.24 47.36 7.68 3.2 14.08-2.56 22.4-9.6 6.4-5.76 14.08-12.8 24.32-17.92 3.84-1.92 5.12-6.4 3.2-10.24-1.92-3.84-6.4-5.12-10.24-3.2-11.52 5.76-21.12 14.08-27.52 19.84-1.92 1.92-3.84 3.2-5.76 5.12-0.64-4.48-1.28-12.8-1.28-30.72 0-5.12-3.84-8.32-7.68-8.32zM613.12 636.16c-1.92 0-4.48 0.64-6.4 2.56-3.2 2.56-3.2 7.68-0.64 10.88 0.64 1.28 1.92 1.92 3.2 1.92 1.28 0.64 2.56 1.28 4.48 1.28 4.48 0 7.68-3.2 7.68-7.68 0-5.76-4.48-8.96-8.32-8.96zM656 634.24c-4.48 0-7.68 3.2-7.68 7.68 0 3.2 1.28 4.48 3.2 6.4l1.28 1.28c2.56 3.2 7.68 3.2 10.88 0.64 0.64-0.64 0.64-0.64 0.64-1.28 0 0 0-0.64 0.64-0.64 2.56-3.2 1.92-8.32-1.28-10.88l-1.92-1.28c-1.28-1.28-3.2-1.92-5.76-1.92zM704.64 637.44c-1.92 0-3.84 0.64-5.12 1.92-1.92 1.28-2.56 3.84-2.56 5.76 0 1.28 0 3.84 3.2 6.4 2.56 3.2 7.68 3.2 10.88 0 1.28-1.28 2.56-3.84 2.56-5.76 0-1.28 0-3.84-3.2-6.4-1.28-0.64-3.2-1.92-5.76-1.92zM641.28 245.12c-1.92 0-5.12 0.64-7.68 4.48-1.28 1.28-1.28 3.2-1.28 4.48 0 3.84 2.56 7.04 6.4 7.68 0.64 0 1.28 0.64 2.56 0.64s3.84-0.64 5.12-1.28c2.56-1.28 3.84-4.48 3.84-7.04 0.64-5.12-4.48-8.96-8.96-8.96zM688 247.68c-1.92 0-3.2 0.64-5.12 1.92-1.92 1.28-3.2 3.84-3.2 5.76 0 3.2 1.92 5.76 5.12 7.04 2.56 1.28 7.68 1.92 10.88-1.28 1.92-1.92 3.2-5.12 2.56-7.68-1.28-4.48-5.76-5.76-8.32-5.76h-1.92zM474.24 108.8c-1.92 0-3.84 0.64-5.12 1.92-3.84 1.92-4.48 5.12-4.48 7.04v1.92c0 4.48 3.84 8.32 8.32 8.32 2.56 0 4.48-1.28 5.76-1.92 0 0 0.64 0 0.64-0.64 3.2-1.28 5.12-4.48 5.12-7.68 0-1.28-0.64-3.2-1.28-4.48-0.64-1.28-1.92-2.56-3.84-3.2-1.28-0.64-2.56-1.28-5.12-1.28zM433.28 112.64c-1.92 0-3.84 0.64-5.76 1.28-3.84 1.92-5.76 6.4-3.84 10.24 0.64 1.28 1.92 2.56 3.2 3.2l0.64 0.64c0.64 0.64 1.28 1.28 2.56 1.28 0.64 0.64 2.56 1.28 4.48 1.28 1.92 0 4.48-0.64 5.76-1.92 0.64-0.64 1.28-1.28 1.28-1.92 0.64-1.28 1.92-2.56 1.92-5.12 0-1.92-1.28-4.48-2.56-5.76-2.56-2.56-4.48-3.2-7.68-3.2zM547.84 111.36c-2.56 0-5.12 1.28-7.04 3.2-1.92 1.28-2.56 3.84-2.56 6.4s1.28 4.48 3.2 6.4c0.64 0.64 1.28 0.64 1.92 1.28 4.48 1.92 8.96 1.28 11.52-1.28 1.92-1.28 2.56-3.84 2.56-5.76-0.64-5.12-4.48-10.24-9.6-10.24zM295.04 270.72c-2.56 0-4.48 0.64-5.76 2.56-1.28 1.28-1.92 2.56-2.56 3.84-0.64 1.28-0.64 2.56-0.64 3.84 0 1.92 1.28 4.48 2.56 5.76 1.28 1.28 3.2 1.92 5.12 1.92 2.56 0.64 5.76 0 7.68-1.92 1.28-1.28 2.56-3.2 2.56-5.76v-2.56c-0.64-3.84-4.48-7.68-8.96-7.68zM343.04 266.24c-3.2 0-5.76 1.28-7.68 4.48-1.28 1.92-1.28 3.84-1.28 5.76 0 4.48 3.2 7.68 7.68 7.68 0.64 0 1.92 0 2.56-0.64 1.92 0 3.2-0.64 4.48-1.28 1.92-1.28 3.84-3.84 3.84-7.04-0.64-4.48-5.12-8.96-9.6-8.96z m-1.28 10.24h7.68-7.68zM391.68 268.16c-4.48 0-8.96 3.84-8.96 8.96 0 2.56 1.28 5.12 3.2 6.4 1.28 0.64 3.2 1.92 5.76 1.92 1.92 0 4.48-0.64 5.76-1.92 0.64 0 3.2-3.2 3.2-7.04 0-3.84-3.2-7.68-7.04-7.68-0.64-0.64-1.28-0.64-1.92-0.64zM327.68 320H326.4c-3.84 0.64-7.04 4.48-6.4 8.96 5.12 32 21.76 64 46.72 90.88 2.56 3.2 7.68 3.2 10.88 0.64s3.2-7.68 0.64-10.88c-23.04-24.32-38.4-53.76-42.88-83.2-1.28-3.84-4.48-6.4-7.68-6.4zM511.36 171.52c-4.48 0-7.68 3.84-7.68 8.32 3.2 46.72 3.2 94.72 3.84 141.44 0 21.76 0.64 44.16 0.64 65.92 0 4.48 3.2 7.68 7.68 7.68s7.68-3.84 7.68-7.68c-0.64-21.76-0.64-44.16-0.64-65.92-0.64-46.72-0.64-94.72-3.84-142.08 0-4.48-3.2-7.68-7.68-7.68zM327.04 325.12h-1.92c-4.48 1.28-5.76 5.12-6.4 7.04-0.64 3.2-3.2 10.88-15.36 24.32-2.56 3.2-2.56 7.68 0.64 10.88 3.2 2.56 7.68 2.56 10.88-0.64 7.68-8.96 12.16-16 14.72-21.12 5.12 4.48 12.8 10.24 26.24 16.64 3.84 1.92 8.32 0.64 10.24-3.2 1.92-3.84 0.64-8.32-3.2-10.24-19.2-10.24-26.24-17.28-28.8-19.84-1.28-1.92-3.2-3.84-7.04-3.84zM513.28 181.76h-0.64c-7.68 0.64-12.16 7.04-26.24 25.6l-2.56 3.84c-2.56 3.2-1.92 8.32 1.92 10.88 3.2 2.56 8.32 1.92 10.88-1.92l2.56-3.84c6.4-8.32 11.52-16 14.72-19.2 1.28 1.28 2.56 2.56 3.84 4.48 3.84 3.84 8.96 9.6 16 16 3.2 2.56 7.68 2.56 10.88-0.64 2.56-3.2 2.56-7.68-0.64-10.88-6.4-5.76-10.88-10.24-14.72-14.08-5.76-5.76-9.6-10.24-16-10.24zM821.12 805.12h-1.92c-4.48 0-7.68 3.2-7.68 7.68s3.2 7.68 7.68 7.68h1.28c4.48 0 7.68-3.2 7.68-7.68s-3.2-7.68-7.04-7.68zM833.28 805.12h-1.92c-4.48 0-7.68 3.2-7.68 7.68s3.2 7.68 7.68 7.68h1.92c4.48 0 7.68-3.2 7.68-7.68s-3.84-7.68-7.68-7.68zM845.44 803.2c-2.56 0-4.48 1.28-5.76 3.2-1.92 1.28-3.2 3.84-3.2 5.76 0 4.48 3.2 7.68 7.68 7.68h1.28c4.48 0 7.68-3.2 7.68-7.68v-1.28c0-3.84-3.84-7.68-7.68-7.68zM761.6-78.08h-3.2c-4.48 0-7.68 3.2-7.68 7.68s3.2 7.68 7.68 7.68h3.2c4.48 0 7.68-3.2 7.68-7.68s-3.2-7.68-7.68-7.68z m-21.76 0h-3.2c-4.48 0-7.68 3.2-7.68 7.68s3.2 7.68 7.68 7.68h3.2c4.48 0 7.68-3.2 7.68-7.68s-3.2-7.68-7.68-7.68z m-21.76 0h-3.2c-4.48 0-7.68 3.2-7.68 7.68s3.2 7.68 7.68 7.68h3.2c4.48 0 7.68-3.2 7.68-7.68s-3.84-7.68-7.68-7.68z m-21.76 0h-3.2c-4.48 0-7.68 3.2-7.68 7.68s3.2 7.68 7.68 7.68h3.2c4.48 0 7.68-3.2 7.68-7.68s-3.84-7.68-7.68-7.68z m-21.76 0h-3.2c-4.48 0-7.68 3.2-7.68 7.68s3.2 7.68 7.68 7.68h3.2c4.48 0 7.68-3.2 7.68-7.68-0.64-4.48-3.84-7.68-7.68-7.68z m-22.4 0h-3.2c-4.48 0-7.68 3.2-7.68 7.68s3.2 7.68 7.68 7.68h3.2c4.48 0 7.68-3.2 7.68-7.68s-3.2-7.68-7.68-7.68z m-21.76 0H627.2c-4.48 0-7.68 3.2-7.68 7.68s3.2 7.68 7.68 7.68h3.2c4.48 0 7.68-3.2 7.68-7.68s-3.2-7.68-7.68-7.68z m-21.76 0h-3.2c-4.48 0-7.68 3.2-7.68 7.68s3.2 7.68 7.68 7.68h3.2c4.48 0 7.68-3.2 7.68-7.68s-3.2-7.68-7.68-7.68z m-21.76 0h-3.2c-4.48 0-7.68 3.2-7.68 7.68s3.2 7.68 7.68 7.68h3.2c4.48 0 7.68-3.2 7.68-7.68s-3.2-7.68-7.68-7.68z m-21.76 0h-3.2c-4.48 0-7.68 3.2-7.68 7.68s3.2 7.68 7.68 7.68h3.2c4.48 0 7.68-3.2 7.68-7.68s-3.84-7.68-7.68-7.68z m-21.76 0h-3.2c-4.48 0-7.68 3.2-7.68 7.68s3.2 7.68 7.68 7.68h3.2c4.48 0 7.68-3.2 7.68-7.68s-3.84-7.68-7.68-7.68z m-21.76 0H518.4c-4.48 0-7.68 3.2-7.68 7.68s3.2 7.68 7.68 7.68h3.2c4.48 0 7.68-3.2 7.68-7.68-0.64-4.48-3.84-7.68-7.68-7.68z m-22.4 0h-3.2c-4.48 0-7.68 3.2-7.68 7.68s3.2 7.68 7.68 7.68h3.2c4.48 0 7.68-3.2 7.68-7.68s-3.2-7.68-7.68-7.68z m-21.76 0h-3.2c-4.48 0-7.68 3.2-7.68 7.68s3.2 7.68 7.68 7.68h3.2c4.48 0 7.68-3.2 7.68-7.68s-3.2-7.68-7.68-7.68z m-21.76 0h-3.2c-4.48 0-7.68 3.2-7.68 7.68s3.2 7.68 7.68 7.68h3.2c4.48 0 7.68-3.2 7.68-7.68s-3.2-7.68-7.68-7.68z m-21.76 0h-3.2c-4.48 0-7.68 3.2-7.68 7.68s3.2 7.68 7.68 7.68h3.2c4.48 0 7.68-3.2 7.68-7.68s-3.2-7.68-7.68-7.68z m-21.76 0h-3.2c-4.48 0-7.68 3.2-7.68 7.68s3.2 7.68 7.68 7.68h3.2c4.48 0 7.68-3.2 7.68-7.68s-3.84-7.68-7.68-7.68z m-21.76 0h-3.2c-4.48 0-7.68 3.2-7.68 7.68s3.2 7.68 7.68 7.68h3.2c4.48 0 7.68-3.2 7.68-7.68s-3.84-7.68-7.68-7.68z m-21.76 0h-3.2c-4.48 0-7.68 3.2-7.68 7.68s3.2 7.68 7.68 7.68h3.2c4.48 0 7.68-3.2 7.68-7.68-0.64-4.48-3.84-7.68-7.68-7.68z m-22.4 0h-3.2c-4.48 0-7.68 3.2-7.68 7.68s3.2 7.68 7.68 7.68h3.2c4.48 0 7.68-3.2 7.68-7.68s-3.2-7.68-7.68-7.68z m-21.76 0h-3.2c-4.48 0-7.68 3.2-7.68 7.68s3.2 7.68 7.68 7.68h3.2c4.48 0 7.68-3.2 7.68-7.68s-3.2-7.68-7.68-7.68z m-21.76 0h-3.2c-4.48 0-7.68 3.2-7.68 7.68s3.2 7.68 7.68 7.68h3.2c4.48 0 7.68-3.2 7.68-7.68s-3.2-7.68-7.68-7.68z m-21.76 0h-3.2c-4.48 0-7.68 3.2-7.68 7.68s3.2 7.68 7.68 7.68h3.2c4.48 0 7.68-3.2 7.68-7.68s-3.2-7.68-7.68-7.68z m-21.76 0H256c-4.48 0-7.68 3.2-7.68 7.68s3.2 7.68 7.68 7.68h3.2c4.48 0 7.68-3.2 7.68-7.68s-3.84-7.68-7.68-7.68z m-21.76 0h-3.2c-4.48 0-7.68 3.2-7.68 7.68s3.2 7.68 7.68 7.68h3.2c4.48 0 7.68-3.2 7.68-7.68s-3.84-7.68-7.68-7.68z m-21.76 0h-3.2c-4.48 0-7.68 3.2-7.68 7.68s3.2 7.68 7.68 7.68h3.2c4.48 0 7.68-3.2 7.68-7.68-0.64-4.48-3.84-7.68-7.68-7.68z m-22.4 0h-3.2c-4.48 0-7.68 3.2-7.68 7.68s3.2 7.68 7.68 7.68h3.2c4.48 0 7.68-3.2 7.68-7.68s-3.2-7.68-7.68-7.68z m587.52 0c-3.84 0-7.68 3.2-7.68 7.68s3.2 7.68 7.68 7.68h2.56c4.48 0 7.68-2.56 8.32-7.04 0-4.48-2.56-7.68-7.04-8.32h-3.84z m-609.28 0c-1.28 0-2.56 0-3.84 0.64-3.84 0.64-7.04 4.48-6.4 8.32 0.64 3.84 4.48 7.04 8.32 6.4h2.56c4.48 0 7.68-3.84 7.04-7.68 0-4.48-3.2-7.68-7.68-7.68z m630.4 3.84c-3.2 0-5.76 1.92-7.04 5.12-1.28 3.84 0.64 8.32 4.48 9.6 0.64 0 1.92 0.64 2.56 1.28 3.84 1.92 8.32 0 10.24-3.84 1.92-3.84 0-8.32-3.84-10.24-1.28-0.64-1.92-0.64-3.2-1.28-1.28 0-2.56-0.64-3.2-0.64z m-650.24 3.2c-1.28 0-3.2 0.64-4.48 1.28-1.28 0.64-1.92 1.28-2.56 2.56-3.2 2.56-3.2 7.68-0.64 10.88s7.68 3.2 10.88 0.64c0.64-0.64 1.28-1.28 1.92-1.28 3.2-2.56 3.84-7.04 1.28-10.88-1.92-1.92-4.48-3.2-6.4-3.2z m669.44 7.68c-1.92 0-4.48 0.64-5.76 2.56-2.56 3.2-1.92 8.32 1.28 10.88l1.92 1.92c3.2 2.56 7.68 2.56 10.88-0.64 2.56-3.2 2.56-7.68-0.64-10.88-0.64-0.64-1.92-1.28-2.56-1.92-1.92-1.28-3.84-1.92-5.12-1.92z m14.08 16.64c-1.28 0-2.56 0.64-3.84 1.28-3.84 1.92-4.48 7.04-2.56 10.24 0.64 0.64 0.64 1.28 1.28 2.56 1.92 3.84 6.4 5.12 10.24 2.56 3.84-1.92 5.12-6.4 2.56-10.24-0.64-1.28-1.28-1.92-1.92-3.2-0.64-1.92-3.2-3.2-5.76-3.2z m8.32 19.84h-1.92c-3.84 0.64-6.4 5.12-5.76 8.96 0 0.64 0.64 1.92 0.64 2.56 0.64 3.84 4.48 7.04 8.96 6.4 3.84-0.64 7.04-4.48 6.4-8.96 0-1.28-0.64-1.92-0.64-3.2-1.28-3.2-4.48-5.76-7.68-5.76z m1.92 21.76c-4.48 0-7.68 3.2-7.68 7.68v3.2c0 4.48 3.2 7.68 7.68 7.68s7.68-3.2 7.68-7.68v-3.2c0-4.48-3.84-7.68-7.68-7.68z m0 21.76c-4.48 0-7.68 3.2-7.68 7.68v3.2c0 4.48 3.2 7.68 7.68 7.68s7.68-3.2 7.68-7.68v-3.2c0-4.48-3.84-7.68-7.68-7.68z m0 21.76c-4.48 0-7.68 3.2-7.68 7.68v3.2c0 4.48 3.2 7.68 7.68 7.68s7.68-3.2 7.68-7.68v-3.2c0-3.84-3.84-7.68-7.68-7.68z m0 21.76c-4.48 0-7.68 3.2-7.68 7.68v3.2c0 4.48 3.2 7.68 7.68 7.68s7.68-3.2 7.68-7.68v-3.2c0-3.84-3.84-7.68-7.68-7.68z m0 22.4c-4.48 0-7.68 3.2-7.68 7.68v3.2c0 4.48 3.2 7.68 7.68 7.68s7.68-3.2 7.68-7.68v-3.2c0-4.48-3.84-7.68-7.68-7.68z m0 21.76c-4.48 0-7.68 3.2-7.68 7.68v3.2c0 4.48 3.2 7.68 7.68 7.68s7.68-3.2 7.68-7.68v-3.2c0-4.48-3.84-7.68-7.68-7.68z m0 21.76c-4.48 0-7.68 3.2-7.68 7.68v3.2c0 4.48 3.2 7.68 7.68 7.68s7.68-3.2 7.68-7.68v-3.2c0-4.48-3.84-7.68-7.68-7.68z m0 21.76c-4.48 0-7.68 3.2-7.68 7.68v3.2c0 4.48 3.2 7.68 7.68 7.68s7.68-3.2 7.68-7.68v-3.2c0-4.48-3.84-7.68-7.68-7.68z m0 21.76c-4.48 0-7.68 3.2-7.68 7.68v3.2c0 4.48 3.2 7.68 7.68 7.68s7.68-3.2 7.68-7.68v-3.2c0-4.48-3.84-7.68-7.68-7.68z m0 21.76c-4.48 0-7.68 3.2-7.68 7.68v3.2c0 4.48 3.2 7.68 7.68 7.68s7.68-3.2 7.68-7.68v-3.2c0-3.84-3.84-7.68-7.68-7.68z m0 21.76c-4.48 0-7.68 3.2-7.68 7.68v3.2c0 4.48 3.2 7.68 7.68 7.68s7.68-3.2 7.68-7.68v-3.2c0-3.84-3.84-7.68-7.68-7.68z m0 22.4c-4.48 0-7.68 3.2-7.68 7.68v3.2c0 4.48 3.2 7.68 7.68 7.68s7.68-3.2 7.68-7.68v-3.2c0-4.48-3.84-7.68-7.68-7.68z m0 21.76c-4.48 0-7.68 3.2-7.68 7.68v3.2c0 4.48 3.2 7.68 7.68 7.68s7.68-3.2 7.68-7.68v-3.2c0-4.48-3.84-7.68-7.68-7.68z m0 21.76c-4.48 0-7.68 3.2-7.68 7.68v3.2c0 4.48 3.2 7.68 7.68 7.68s7.68-3.2 7.68-7.68v-3.2c0-4.48-3.84-7.68-7.68-7.68z m0 21.76c-4.48 0-7.68 3.2-7.68 7.68v3.2c0 4.48 3.2 7.68 7.68 7.68s7.68-3.2 7.68-7.68v-3.2c0-4.48-3.84-7.68-7.68-7.68z m0 21.76c-4.48 0-7.68 3.2-7.68 7.68v3.2c0 4.48 3.2 7.68 7.68 7.68s7.68-3.2 7.68-7.68v-3.2c0-4.48-3.84-7.68-7.68-7.68z m0 21.76c-4.48 0-7.68 3.2-7.68 7.68v3.2c0 4.48 3.2 7.68 7.68 7.68s7.68-3.2 7.68-7.68v-3.2c0-3.84-3.84-7.68-7.68-7.68z m0 21.76c-4.48 0-7.68 3.2-7.68 7.68v3.2c0 4.48 3.2 7.68 7.68 7.68s7.68-3.2 7.68-7.68v-3.2c0-3.84-3.84-7.68-7.68-7.68z m0 22.4c-4.48 0-7.68 3.2-7.68 7.68v3.2c0 4.48 3.2 7.68 7.68 7.68s7.68-3.2 7.68-7.68v-3.2c0-4.48-3.84-7.68-7.68-7.68z m0 21.76c-4.48 0-7.68 3.2-7.68 7.68v3.2c0 4.48 3.2 7.68 7.68 7.68s7.68-3.2 7.68-7.68v-3.2c0-4.48-3.84-7.68-7.68-7.68z m0 21.76c-4.48 0-7.68 3.2-7.68 7.68v3.2c0 4.48 3.2 7.68 7.68 7.68s7.68-3.2 7.68-7.68v-3.2c0-4.48-3.84-7.68-7.68-7.68z m0 21.76c-4.48 0-7.68 3.2-7.68 7.68v3.2c0 4.48 3.2 7.68 7.68 7.68s7.68-3.2 7.68-7.68v-3.2c0-4.48-3.84-7.68-7.68-7.68z m0 21.76c-4.48 0-7.68 3.2-7.68 7.68V486.4c0 4.48 3.2 7.68 7.68 7.68s7.68-3.2 7.68-7.68v-3.2c0-4.48-3.84-7.68-7.68-7.68z m0 21.76c-4.48 0-7.68 3.2-7.68 7.68v3.2c0 4.48 3.2 7.68 7.68 7.68s7.68-3.2 7.68-7.68v-3.2c0-3.84-3.84-7.68-7.68-7.68z m0 21.76c-4.48 0-7.68 3.2-7.68 7.68v3.2c0 4.48 3.2 7.68 7.68 7.68s7.68-3.2 7.68-7.68v-3.2c0-3.84-3.84-7.68-7.68-7.68z m0 22.4c-4.48 0-7.68 3.2-7.68 7.68v3.2c0 4.48 3.2 7.68 7.68 7.68s7.68-3.2 7.68-7.68v-3.2c0-4.48-3.84-7.68-7.68-7.68z m0 21.76c-4.48 0-7.68 3.2-7.68 7.68v3.2c0 4.48 3.2 7.68 7.68 7.68s7.68-3.2 7.68-7.68v-3.2c0-4.48-3.84-7.68-7.68-7.68z m0 21.76c-4.48 0-7.68 3.2-7.68 7.68V595.2c0 4.48 3.2 7.68 7.68 7.68s7.68-3.2 7.68-7.68v-3.2c0-3.84-3.84-7.04-7.68-7.04z m0 21.76c-4.48 0-7.68 3.2-7.68 7.68v3.2c0 4.48 3.2 7.68 7.68 7.68s7.68-3.2 7.68-7.68v-3.2c0-4.48-3.84-7.68-7.68-7.68z m0 21.76c-4.48 0-7.68 3.2-7.68 7.68v3.2c0 4.48 3.2 7.68 7.68 7.68s7.68-3.2 7.68-7.68v-3.2c0-4.48-3.84-7.68-7.68-7.68z m0 21.76c-4.48 0-7.68 3.2-7.68 7.68v3.2c0 4.48 3.2 7.68 7.68 7.68s7.68-3.2 7.68-7.68v-3.2c0-3.84-3.84-7.68-7.68-7.68z m0 21.76c-4.48 0-7.68 3.2-7.68 7.68v3.2c0 4.48 3.2 7.68 7.68 7.68s7.68-3.2 7.68-7.68v-3.2c0-3.84-3.84-7.68-7.68-7.68z m0 22.4c-4.48 0-7.68 3.2-7.68 7.68v3.2c0 4.48 3.2 7.68 7.68 7.68s7.68-3.2 7.68-7.68v-3.2c0-4.48-3.84-7.68-7.68-7.68z m0 21.76c-4.48 0-7.68 3.2-7.68 7.68v3.2c0 4.48 3.2 7.68 7.68 7.68s7.68-3.2 7.68-7.68v-3.2c0-4.48-3.84-7.68-7.68-7.68z m0 21.76c-4.48 0-7.68 3.2-7.68 7.68V748.8c0 4.48 3.2 7.68 7.68 7.68s7.68-3.2 7.68-7.68v-3.2c0-4.48-3.84-7.68-7.68-7.68z m0 21.76c-4.48 0-7.68 3.2-7.68 7.68v3.2c0 4.48 3.2 7.68 7.68 7.68s7.68-3.2 7.68-7.68v-3.2c0-4.48-3.84-7.68-7.68-7.68z m0 21.76c-4.48 0-7.68 3.2-7.68 7.68v3.2c0 4.48 3.2 7.68 7.68 7.68s7.68-3.2 7.68-7.68v-3.2c0-4.48-3.84-7.68-7.68-7.68zM138.88-53.12c-3.2 0-5.76 1.92-7.04 5.12 0 0.64-0.64 1.28-0.64 1.92-1.28 3.84 1.28 8.32 5.12 9.6 3.84 1.28 8.32-1.28 9.6-5.12 0-0.64 0-0.64 0.64-1.28 1.28-3.84-0.64-8.32-4.48-9.6-1.92-0.64-2.56-0.64-3.2-0.64zM487.68 378.24C337.28 378.24 332.8 460.16 332.8 469.76c0 61.44 88.96 83.2 164.48 83.2 34.56 0 70.4-4.48 108.16-12.8 39.04-8.32 80-36.48 80-71.68 0.64-74.24-107.52-90.24-197.76-90.24zM497.92 537.6c-74.24 0-149.76-21.12-149.76-67.84 0-7.68 3.84-76.16 139.52-76.16 68.48 0 182.4 9.6 182.4 74.88 0 28.8-39.68 50.56-67.84 56.96C566.4 533.76 531.2 537.6 497.92 537.6zM545.92 450.56c-12.16 0-20.48 4.48-27.52 8.32-6.4 3.2-10.88 5.76-17.92 5.76-10.24 0-15.36-3.2-21.12-5.76-5.12-2.56-10.24-5.76-19.2-5.76-10.24 0-19.84 4.48-28.16 8.32-7.04 3.2-14.08 5.76-19.2 5.76-8.96 0-17.92-5.12-21.12-11.52-1.92-3.84-6.4-5.12-10.24-3.2-3.84 1.92-5.12 6.4-3.2 10.24 6.4 11.52 19.84 19.84 34.56 19.84 8.32 0 16.64-3.84 24.96-7.04 7.68-3.2 15.36-7.04 22.4-7.04 4.48 0 7.04 1.92 11.52 3.84 6.4 3.84 14.08 8.32 28.8 8.32 10.88 0 18.56-3.84 24.96-7.68 6.4-3.2 12.16-6.4 20.48-6.4 8.96 0 16 3.2 23.04 5.76 7.04 3.2 14.72 6.4 24.32 6.4 8.32 0 14.72-3.2 19.2-5.12 3.84-1.92 5.76-3.2 7.68-2.56 7.68 1.92 7.68 1.92 9.6 3.2 3.2 2.56 8.32 1.92 10.88-1.28 2.56-3.2 1.92-8.32-1.28-10.88-4.48-3.84-5.76-3.84-15.36-6.4-7.04-1.92-12.8 1.28-17.92 3.84-3.84 1.92-7.68 3.84-12.8 3.84-6.4 0-11.52-2.56-17.92-5.12-8.32-3.84-17.28-7.68-29.44-7.68zM340.48 674.56c-53.76 0-86.4 30.72-86.4 53.12 0 35.2 61.44 46.72 88.96 46.72 7.04 0 14.08-0.64 20.48-1.28 54.4-7.04 65.28-28.8 65.28-46.08 0.64-36.48-43.52-52.48-88.32-52.48z m3.2 84.48c-30.08 0-74.24-12.16-74.24-31.36 0-12.8 24.96-37.76 71.04-37.76 29.44 0 73.6 9.6 73.6 37.12 0 20.48-28.16 28.16-52.48 31.36-5.76 0.64-12.16 0.64-17.92 0.64zM304 718.08c-0.64 0-1.92 0-2.56 0.64-0.64 0-1.28 0.64-1.92 0.64-3.84 1.92-5.12 6.4-3.2 10.24 1.92 3.84 5.76 4.48 7.04 4.48 1.92 0 3.2-0.64 4.48-1.92 0.64-0.64 1.28-0.64 1.92-1.28 2.56-3.2 2.56-7.68 0-10.88-1.92-0.64-3.84-1.92-5.76-1.92zM346.88 717.44c-5.12 0-9.6 4.48-9.6 9.6 0 4.48 3.2 7.68 7.68 7.68 1.28 0 2.56-0.64 3.84-1.28 1.28-0.64 2.56-1.28 3.84-2.56 1.28-1.92 1.92-3.84 1.92-6.4 0-3.2-3.2-7.04-7.68-7.04zM385.28 716.8c-1.92 0-3.2 0.64-3.84 1.28-3.84 1.92-5.76 6.4-3.84 10.24 0.64 1.28 1.92 2.56 3.2 3.2 1.28 1.28 2.56 1.28 4.48 1.28 3.84 0 6.4-2.56 7.68-5.76 0-0.64 0.64-1.92 0.64-2.56-0.64-3.84-4.48-7.68-8.32-7.68z"  horiz-adv-x="1024" />

    
    <glyph glyph-name="renshu" unicode="&#58937;" d="M415.7 308.7c-59.6 0-115.6 23.2-157.7 65.3-42.1 42.1-65.3 98.2-65.3 157.7s23.2 115.6 65.3 157.7 98.2 65.3 157.7 65.3 115.6-23.2 157.7-65.3c42.1-42.1 65.3-98.2 65.3-157.7S615.5 416.1 573.4 374c-42.1-42.1-98.2-65.3-157.7-65.3z m0 386.2c-89.9 0-163.1-73.2-163.1-163.1 0-89.9 73.2-163.1 163.1-163.1 89.9 0 163.1 73.2 163.1 163.1-0.1 89.9-73.2 163.1-163.1 163.1zM767.5 16.9h-60c0 77.9-30.4 151.2-85.5 206.3s-128.4 85.5-206.3 85.5-151.2-30.4-206.3-85.5-85.5-128.4-85.5-206.3h-60c0 47.5 9.3 93.6 27.7 136.9 17.7 41.9 43.1 79.5 75.4 111.8 32.3 32.3 69.9 57.7 111.8 75.4 43.4 18.4 89.5 27.7 136.9 27.7s93.6-9.3 136.9-27.7c41.9-17.7 79.5-43.1 111.8-75.4 32.3-32.3 57.7-69.9 75.4-111.8 18.4-43.3 27.7-89.4 27.7-136.9zM714.5 376.1l-26.2 54c51.5 25.1 83.6 72.4 83.6 123.4 0 78-73.2 141.4-163.1 141.4v60c58.9 0 114.5-20.5 156.4-57.8 43-38.1 66.6-89.2 66.6-143.6 0-74.2-44.9-142.2-117.3-177.4zM960.5 81.3h-60c0 70.4-23.9 138.7-67.2 192.3-42.6 52.6-101.4 88.2-165.7 100l10.9 59C756.9 418.1 828.4 375 880 311.3c51.9-64.2 80.5-145.9 80.5-230z"  horiz-adv-x="1024" />

    
    <glyph glyph-name="dasuolvetuliebiao" unicode="&#58880;" d="M380.928 828.416q26.624 0 45.568-18.944t18.944-45.568l0-256q0-26.624-18.944-45.568t-45.568-18.944l-256 0q-26.624 0-45.056 18.944t-18.432 45.568l0 256q0 26.624 18.432 45.568t45.056 18.944l256 0zM380.928 315.392q26.624 0 45.568-18.432t18.944-45.056l0-256q0-26.624-18.944-45.568t-45.568-18.944l-256 0q-26.624 0-45.056 18.944t-18.432 45.568l0 256q0 26.624 18.432 45.056t45.056 18.432l256 0zM893.952 828.416q26.624 0 45.056-18.944t18.432-45.568l0-256q0-26.624-18.432-45.568t-45.056-18.944l-256 0q-26.624 0-45.568 18.944t-18.944 45.568l0 256q0 26.624 18.944 45.568t45.568 18.944l256 0zM893.952 315.392q26.624 0 45.056-18.432t18.432-45.056l0-256q0-26.624-18.432-45.568t-45.056-18.944l-256 0q-26.624 0-45.568 18.944t-18.944 45.568l0 256q0 26.624 18.944 45.056t45.568 18.432l256 0z"  horiz-adv-x="1024" />

    
    <glyph glyph-name="wenjianjia1" unicode="&#59006;" d="M107.789474 896h319.218526A129.347368 129.347368 0 0 0 529.246316 845.824L840.757895 443.284211H0V788.210526a107.789474 107.789474 0 0 0 107.789474 107.789474zM138.186105 712.757895h909.312c48.074105 0 65.482105-5.012211 82.997895-14.389895 17.623579-9.377684 31.420632-23.174737 40.798316-40.744421 9.377684-17.569684 14.389895-35.031579 14.389895-82.997895v-564.439579c0-48.074105-5.012211-65.482105-14.389895-82.997894-9.377684-17.623579-23.174737-31.420632-40.744421-40.798316-17.569684-9.377684-35.031579-14.389895-82.997895-14.389895H138.132211c-48.074105 0-65.482105 5.012211-82.997895 14.389895a97.926737 97.926737 0 0 0-40.798316 40.744421C5.012211-55.242105 0-37.834105 0 10.132211V574.625684c0 48.074105 5.012211 65.482105 14.389895 82.997895 9.377684 17.623579 23.174737 31.420632 40.744421 40.798316 17.569684 9.377684 35.031579 14.389895 82.997895 14.389894z"  horiz-adv-x="1185" />

    
    <glyph glyph-name="pdf" unicode="&#58913;" d="M663.49568 816H195.2c-31.81056 0-57.6-25.78944-57.6-57.6V-19.20512c0-15.90272 6.44096-30.30528 16.87552-40.72448a57.42592 57.42592 0 0 1 40.72448-16.87552h633.6c31.81056 0 57.6 25.78944 57.6 57.6V593.09568l-222.90432 222.90432zM663.49568 844.8H195.2c-31.81056 0-57.6-25.78944-57.6-57.6V9.59488c0-15.90272 6.44096-30.30528 16.87552-40.72448a57.42592 57.42592 0 0 1 40.72448-16.87552h633.6c31.81056 0 57.6 25.78944 57.6 57.6V621.89568L663.49568 844.8zM764.4672 743.82848l-100.6336-100.62848 222.5664-222.5664V621.89568zM663.49568 844.8h-7.49568v-172.8c0-31.81056 25.78944-57.6 57.6-57.6h172.8v7.49568L663.49568 844.8zM688.83456 312.704c14.07488-7.90528 12.06272-13.824 22.1184-5.91872 10.05568 7.90016-10.05568 17.77664-26.1376 23.69536-16.09216 5.92896-92.52864 15.2832-92.52864 15.2832s4.81792-6.45632 11.34592-13.06624c12.12416-6.08768 22.93248-10.07104 30.90944-13.9776 16.35328 0.28672 42.41408 0.65024 54.29248-6.016z m21.69856-21.61152c-10.05568 5.91872-47.85664 11.74016-71.9872 25.56416-1.22368 0.70656-2.60608 1.3824-4.00896 2.06336-3.03616-0.04096-5.85216-0.09728-8.05376-0.09728-7.21408 0-15.98976 7.13216-22.85568 14.07488-28.07808 14.09024-63.09376 39.74144-85.76512 103.90528 0 0-14.08 51.35872-16.08704 69.13024-2.01216 17.76128 6.03136 35.54816 10.05056 19.74272 0 0 8.04352-17.77664 4.02432-31.59552l4.02432-23.69536s14.07488 51.33824 4.0192 65.1776c0 0-37.99552 21.7088-40.00256-11.86816-2.01216-33.56672 2.10944-82.63168 6.12864-90.53696 0 0-39.9104-120.24832-92.20608-193.3312 0 0-22.1184-31.58528-32.17408-35.54816 0 0-24.14592-9.87648-8.05888 11.8528 0 0 38.2208 43.44832 46.26432 55.296 0 0-69.97504-39.50592-73.99936-49.36192-4.0192-9.88672-13.9776-29.73184 11.64288-39.50592 0 0 29.54752-2.39104 51.66592 21.30432 0 0 51.87584 63.29344 61.93152 83.04128 0 0 32.60928 11.9552 141.21472 31.70816 0 0 58.33216-27.44832 76.44672-31.3856 18.09408-3.96288 26.1376-17.77664 26.1376-17.77664s21.70368 15.90272 11.648 21.84192z m-245.38624 21.0944l42.56256 83.47136c4.02432-19.75808 43.1872-57.9072 43.1872-57.9072-16.08704-1.9712-85.74976-25.56416-85.74976-25.56416zM688.83456 341.504c14.07488-7.90528 12.06272-13.824 22.1184-5.91872 10.05568 7.8848-10.05568 17.76128-26.1376 23.69536-16.09216 5.92896-92.52864 15.2832-92.52864 15.2832s4.81792-6.45632 11.34592-13.06624c12.12416-6.08768 22.93248-10.07104 30.90944-13.9776 16.35328 0.28672 42.41408 0.65024 54.29248-6.016z m21.69856-21.61152c-10.05568 5.91872-47.85664 11.74016-71.9872 25.56416-1.22368 0.70656-2.60608 1.3824-4.00896 2.06336-3.03616-0.04096-5.85216-0.09728-8.05376-0.09728-7.21408 0-15.98976 7.13216-22.85568 14.07488-28.07808 14.09024-63.09376 39.74144-85.76512 103.90528 0 0-14.08 51.35872-16.08704 69.13024-2.01216 17.76128 6.03136 35.54816 10.05056 19.74272 0 0 8.04352-17.77664 4.02432-31.59552l4.02432-23.69536s14.07488 51.33824 4.0192 65.1776c0 0-37.99552 21.7088-40.00256-11.86816-2.01216-33.56672 2.10944-82.63168 6.12864-90.53696 0 0-39.9104-120.24832-92.20608-193.3312 0 0-22.1184-31.58528-32.17408-35.54816 0 0-24.14592-9.87648-8.05888 11.8528 0 0 38.2208 43.44832 46.26432 55.296 0 0-69.97504-39.50592-73.99936-49.36192-4.0192-9.88672-13.9776-29.73184 11.64288-39.50592 0 0 29.54752-2.39104 51.66592 21.30432 0 0 51.87584 63.29344 61.93152 83.04128 0 0 32.60928 11.9552 141.21472 31.70816 0 0 58.33216-27.44832 76.44672-31.3856 18.09408-3.96288 26.1376-17.77664 26.1376-17.77664s21.70368 15.90272 11.648 21.84192z m-245.38624 21.0944l42.56256 83.47136c4.02432-19.75808 43.1872-57.9072 43.1872-57.9072-16.08704-1.9712-85.74976-25.56416-85.74976-25.56416z"  horiz-adv-x="1024" />

    
    <glyph glyph-name="ppt" unicode="&#58892;" d="M145.6 896C100.8 896 64 859.2 64 814.4v-860.8C64-91.2 100.8-128 145.6-128h732.8c44.8 0 81.6 36.8 81.6 81.6V571.2L657.6 896h-512zM960 569.6v-16H755.2s-100.8 20.8-99.2 108.8c0 0 4.8-92.8 97.6-92.8H960zM657.6 896v-233.6c0-25.6 17.6-92.8 97.6-92.8H960L657.6 896zM304 112h-54.4v-67.2c0-6.4-4.8-11.2-11.2-11.2-6.4 0-12.8 4.8-12.8 11.2V209.6c0 9.6 8 17.6 17.6 17.6H304c38.4 0 59.2-25.6 59.2-57.6S340.8 112 304 112z m-3.2 94.4h-51.2v-73.6h51.2c22.4 0 38.4 16 38.4 36.8 0 22.4-16 36.8-38.4 36.8zM480 112h-54.4v-67.2c0-6.4-4.8-11.2-11.2-11.2-6.4 0-11.2 4.8-11.2 11.2V209.6c0 9.6 6.4 17.6 16 17.6H480c38.4 0 59.2-25.6 59.2-57.6S518.4 112 480 112z m-3.2 94.4h-49.6v-73.6h49.6c22.4 0 38.4 16 38.4 36.8 0 22.4-16 36.8-38.4 36.8z m225.6 0h-52.8v-161.6c0-6.4-4.8-11.2-11.2-11.2-6.4 0-12.8 4.8-12.8 11.2V206.4h-51.2c-6.4 0-11.2 4.8-11.2 11.2 0 4.8 4.8 9.6 11.2 9.6h128c6.4 0 11.2-4.8 11.2-11.2 0-4.8-4.8-9.6-11.2-9.6z"  horiz-adv-x="1024" />

    
    <glyph glyph-name="wenjianjia" unicode="&#58914;" d="M810.665 626.667v24.889c0 27.467-22.288 49.777-49.777 49.777H437.333v24.89c0 27.467-22.288 49.777-49.779 49.777H263.11c-27.489 0-49.777-22.31-49.777-49.777v-99.556h597.332zM885.332 626.667H399.999V664c0 41.203-33.431 74.667-74.667 74.667H138.667C97.431 738.667 64 705.202 64 664v-597.333C64 25.4 97.431-8 138.667-8h746.665c41.235 0 74.666 33.4 74.666 74.667V552c0 41.202-33.431 74.667-74.666 74.667zM344 686.776v-60.109h55.528c10.588 82.956-28.514 102.28-62.733 110.843A181.619 181.619 0 0 0 344 686.776zM896.794 625.509C901.296 615.904 904 605.3 904 594v-485.334C904 67.4 870.566 34 829.332 34H82.665c-3.93 0-7.71 0.571-11.477 1.156C83.092 9.718 108.73-8 138.665-8h746.667C926.566-8 960 25.4 960 66.667V552c0 37.278-27.454 67.953-63.206 73.509z"  horiz-adv-x="1024" />

    
    <glyph glyph-name="picture" unicode="&#59113;" d="M315 599c29.6 0 53.7-24.1 53.7-53.7s-24.1-53.7-53.7-53.7-53.7 24.1-53.7 53.7 24.1 53.7 53.7 53.7M315 634.8c-49.5 0-89.6-40.1-89.6-89.6s40.1-89.6 89.6-89.6c49.5 0 89.6 40.1 89.6 89.6 0 49.5-40.1 89.6-89.6 89.6zM279.2 142.2c-2.4 0-4.7 0.9-6.5 2.8-3.4 3.6-3.3 9.3 0.3 12.6 65.6 62.3 119.6 109.9 167.4 109.9 49.4 0 80-27.1 107-51.1 23.3-20.7 43.4-38.5 72.1-38.5 14.7 0 65.5 2.4 101.6 33.6 3.7 3.2 9.4 2.9 12.6-0.9 3.2-3.7 2.8-9.4-0.9-12.6-39.7-34.3-92.5-38-113.3-38-35.5 0-60.2 21.9-84 43-25.8 22.9-52.5 46.5-95.1 46.5-41 0-94.5-47.6-155.1-105-1.7-1.5-3.9-2.3-6.1-2.3zM769.7 234c-2.4 0-4.8 1-6.6 2.9-3.4 3.6-3.1 9.3 0.5 12.7l9.6 8.9c8.3 7.6 16.6 15.4 24.9 22.9 3.6 3.4 9.3 3.1 12.6-0.5 3.4-3.7 3.1-9.3-0.5-12.6-8.3-7.6-16.5-15.3-24.8-22.9l-9.6-8.9c-1.7-1.7-3.9-2.5-6.1-2.5zM82.1 133.3c-9.9 0-17.9 8-17.9 17.9s8 17.9 17.9 17.9c45.3 0 116.6 67.8 179.6 127.6 69.6 66.1 129.7 123.2 178.7 123.2 53.8 0 85.8-34.1 114.1-64.2 21.8-23.2 40.7-43.3 65-43.3 26.2 0 85 54.5 132.3 98.2 64.8 60 126 116.7 172.3 116.7 9.9 0 17.9-8 17.9-17.9 0-9.9-8-17.9-17.9-17.9-32.2 0-96.4-59.4-147.9-107.2-62.4-57.8-116.4-107.8-156.6-107.8-39.8 0-65.9 27.7-91.1 54.6-25.6 27.2-49.7 52.9-88 52.9-34.7 0-98.1-60.2-154-113.4-74.5-70.6-144.8-137.3-204.4-137.3zM870.3 7.9h-716.5c-49.4 0-89.6 40.2-89.6 89.6v573.1c0 49.4 40.2 89.6 89.6 89.6h716.5c49.4 0 89.6-40.2 89.6-89.6v-573.2c0-49.4-40.2-89.5-89.6-89.5zM153.8 724.4c-29.6 0-53.7-24.1-53.7-53.7v-573.2c0-29.6 24.1-53.7 53.7-53.7h716.5c29.6 0 53.7 24.1 53.7 53.7v573.1c0 29.6-24.1 53.7-53.7 53.7h-716.5z"  horiz-adv-x="1024" />

    
    <glyph glyph-name="zip" unicode="&#58891;" d="M944-48H80c-26.4 0-48 18.4-48 40.8V240h960v-247.2c0-22.4-21.6-40.8-48-40.8zM80 816h864c26.4 0 48-18.4 48-40.8V528H32V775.2c0 22.4 21.6 40.8 48 40.8zM32 528h960v-288H32zM352 816h320v-864H352zM444 768h64v-48h-64zM508 816h64v-48h-64zM508 720h64v-48h-64zM444 672h64v-48h-64zM508 624h64v-48h-64zM444 576h64v-48h-64zM508 528h64v-48h-64zM444 480h64v-48h-64zM508 432h64v-48h-64zM444 384h64v-48h-64zM508 336h64v-48h-64zM444 288h64v-48h-64zM508 240h64v-48h-64zM444 192h64v-48h-64zM508 144h64v-48h-64zM444 96h64v-48h-64zM444 0h64v-48h-64zM508 48h64v-48h-64z"  horiz-adv-x="1024" />

    
    <glyph glyph-name="wenjian" unicode="&#59283;" d="M544 768h-288c-19.2 0-32-12.8-32-32v-704c0-19.2 12.8-32 32-32h512c19.2 0 32 12.8 32 32v480h-192c-35.2 0-64 28.8-64 64v192z m64-12.8v-179.2h179.2l-179.2 179.2z m-352 76.8h352c9.6 0 16-3.2 22.4-9.6l224-224c6.4-6.4 9.6-12.8 9.6-22.4v-544c0-54.4-41.6-96-96-96h-512c-54.4 0-96 41.6-96 96v704c0 54.4 41.6 96 96 96z m64-352h160c19.2 0 32-12.8 32-32s-12.8-32-32-32h-160c-19.2 0-32 12.8-32 32s12.8 32 32 32z m0-128h384c19.2 0 32-12.8 32-32s-12.8-32-32-32h-384c-19.2 0-32 12.8-32 32s12.8 32 32 32z m0-128h384c19.2 0 32-12.8 32-32s-12.8-32-32-32h-384c-19.2 0-32 12.8-32 32s12.8 32 32 32z"  horiz-adv-x="1024" />

    
    <glyph glyph-name="doc" unicode="&#58959;" d="M959.16 708.3199999999999c2.14 23.23-16.1 41.26-39.32 38.92-108.92 1.76-217.84 0-326.84 0.61V829.36h-60.95C375.86 801.55 219.57 775 63.38 747.65v-713c155.38-27.2 310.85-53.18 465.93-81.51H593v81.51c102 0 203.87 0.2 305.86-0.31 17.32 0.82 36.58-0.51 51.45 10.09 11.92 18.24 8.87 41.06 9.89 61.64-1.45 200.72 0.69 401.53-1.04 602.25zM593 717.29h336.21v-652.08H593v81.51h264.9v40.76H593v50.94h264.9v40.76H593v50.94h264.9v40.75H593v50.95h264.9v40.75H593v50.94h264.9v40.76H593v50.94h264.9V646H593zM115.57 476.51h42.54q14.39 0 21.94-2.38a38.18 38.18 0 0 0 17.38-11.46 55.43 55.43 0 0 0 11-20.18q3.78-11.94 3.78-29.43 0-15.37-3.54-26.51-4.33-13.58-12.35-22-6.05-6.37-16.35-9.94-7.71-2.64-20.6-2.64h-43.8z m23.28-21.06V373h17.38q9.75 0 14.07 1.18a21 21 0 0 1 9.39 5.18q3.74 3.66 6.09 12t2.36 22.81q0 14.43-2.36 22.17t-6.6 12.06a21.6 21.6 0 0 1-10.78 5.87q-4.87 1.18-19.1 1.18zM227.23 413.49q0 19 5.27 31.94a59.12 59.12 0 0 0 10.73 17.07 45.09 45.09 0 0 0 14.9 11.21q10.78 4.93 24.85 4.93 25.48 0 40.77-17.07T339 414.08q0-30.15-15.17-47.18t-40.58-17q-25.72 0-40.89 16.94t-15.13 46.65z m24 0.85q0-21.15 9-32.06a29.54 29.54 0 0 1 45.8-0.09Q315 393 315 414.68q0 21.4-8.69 31.94t-23.08 10.54q-14.39 0-23.19-10.67t-8.83-32.15zM351.31 392.51l22.69 2.38q2-12.31 8.29-18.09t16.82-5.8q11.25 0 16.94 5.14t5.7 12a11.94 11.94 0 0 1-2.4 7.51q-2.4 3.1-8.37 5.39-4.09 1.54-18.64 5.44-18.72 5-26.26 12.32a33.55 33.55 0 0 0-10.62 25.05 33.91 33.91 0 0 0 5 17.8 31.92 31.92 0 0 0 14.39 12.61q9.4 4.34 22.69 4.34 21.7 0 32.67-10.28t11.52-27.44l-23.28-1.1q-1.49 9.6-6.41 13.8t-14.74 4.21q-10.15 0-15.88-4.5a9.33 9.33 0 0 1-3.7-7.73 9.85 9.85 0 0 1 3.46-7.56q4.4-4 21.39-8.33t25.12-9a33.6 33.6 0 0 0 12.74-12.66q4.6-8 4.6-19.84a38.79 38.79 0 0 0-5.51-20A33.64 33.64 0 0 0 424 354.33000000000004q-10.07-4.55-25.08-4.55-21.86 0-33.58 10.91t-14.03 31.82z"  horiz-adv-x="1024" />

    
    <glyph glyph-name="xls" unicode="&#58961;" d="M533.58 821H594v-81.31c101.74 0 203.47-0.2 305.21 0.31 17.18-0.71 36.09 0.51 51-9.76 10.47-15 9.25-34.15 10-51.43q-0.76-264.66-0.2-529.12c-0.51-29.58 2.74-59.76-3.45-88.93-4.14-21.1-29.56-21.61-46.56-22.32-105.3-0.31-210.69 0.2-316.09 0V-53h-63.07c-154.9 28.15-310.1 54.17-465.2 81.31V739.63C221.66 766.77 377.67 793.49 533.58 821zM594 709.24h335.4v-640.31H594v61h81.31v71.12H594v40.66h81.31v71.14H594v40.66h81.31v71.14H594v40.66h81.31v71.14H594v40.66h81.31v71.15H594zM715.92 648.26h142.29v-71.15H715.92zM715.92 536.45h142.29v-71.15H715.92zM715.92 424.65h142.29v-71.15H715.92zM715.92 312.85h142.29v-71.15H715.92zM715.92 201.04999999999995h142.29v-71.15H715.92zM98.48 344.84000000000003l39.3 64.82-35.61 59.39h27.14l23.06-39.91L175 469.05h26.91l-35.77-60.33 39.3-63.89h-28l-25.49 43-25.57-43zM217.94 344.84000000000003V468h23.22v-102.23h57.73v-20.93zM309.56 385.25l22.59 2.37q2-12.28 8.27-18t16.82-5.77q11.22 0 16.9 5.13t5.69 12a11.91 11.91 0 0 1-2.39 7.49q-2.39 3.1-8.35 5.38-4.08 1.53-18.59 5.43-18.67 5-26.2 12.29a33.47 33.47 0 0 0-10.59 25 33.82 33.82 0 0 0 5 17.76A31.84 31.84 0 0 0 333 466.85q9.37 4.33 22.63 4.33 21.65 0 32.59-10.25t11.49-27.37l-23.22-1.1q-1.49 9.57-6.39 13.77t-14.7 4.2q-10.12 0-15.85-4.49a9.3 9.3 0 0 1-3.69-7.71 9.83 9.83 0 0 1 3.45-7.54q4.39-4 21.33-8.31t25.06-8.93a33.52 33.52 0 0 0 12.7-12.63q4.59-8 4.59-19.79a38.7 38.7 0 0 0-5.49-20 33.56 33.56 0 0 0-15.5-13.86q-10-4.54-25-4.54-21.81 0-33.49 10.89t-13.95 31.73z"  horiz-adv-x="1024" />

    
    <glyph glyph-name="js-square" unicode="&#61916;" d="M864 832H160C107 832 64 789 64 736v-704c0-53 43-96 96-96h704c53 0 96 43 96 96V736c0 53-43 96-96 96zM551.6 133.2c0-87.2-51.2-127-125.8-127-67.4 0-106.4 34.8-126.4 77l68.6 41.4c13.2-23.4 25.2-43.2 54.2-43.2 27.6 0 45.2 10.8 45.2 53V420.6h84.2v-287.4z m199.2-127c-78.2 0-128.8 37.2-153.4 86l68.6 39.6c18-29.4 41.6-51.2 83-51.2 34.8 0 57.2 17.4 57.2 41.6 0 28.8-22.8 39-61.4 56l-21 9c-60.8 25.8-101 58.4-101 127 0 63.2 48.2 111.2 123.2 111.2 53.6 0 92-18.6 119.6-67.4L800 316c-14.4 25.8-30 36-54.2 36-24.6 0-40.2-15.6-40.2-36 0-25.2 15.6-35.4 51.8-51.2l21-9c71.6-30.6 111.8-62 111.8-132.4 0-75.6-59.6-117.2-139.4-117.2z"  horiz-adv-x="1024" />

    
    <glyph glyph-name="Vue" unicode="&#59289;" d="M615.6 772.4h165.5L512 306.29999999999995 242.9 772.4H63.5L512-4.399999999999977l448.5 776.9zM781.1 772.4H615.6L512 593 408.4 772.4H242.9L512 306.29999999999995z"  horiz-adv-x="1024" />

    
    <glyph glyph-name="xml" unicode="&#58990;" d="M145.6 896C100.8 896 64 860.8 64 816v-862.4C64-91.2 100.8-128 145.6-128h732.8c44.8 0 81.6 36.8 81.6 81.6V571.2L657.6 896h-512zM960 569.6v-16H755.2s-100.8 20.8-99.2 108.8c0 0 4.8-92.8 97.6-92.8H960zM657.6 896v-233.6c0-25.6 17.6-92.8 97.6-92.8H960L657.6 896zM374.4 35.2c-3.2 0-6.4 0-9.6 3.2l-59.2 80-59.2-80c-3.2-3.2-6.4-3.2-9.6-3.2-6.4 0-11.2 4.8-11.2 11.2 0 1.6 0 4.8 1.6 6.4l62.4 81.6-57.6 78.4c-1.6 1.6-1.6 3.2-1.6 6.4 0 4.8 4.8 11.2 11.2 11.2 3.2 0 6.4-1.6 9.6-4.8l54.4-73.6 54.4 73.6c3.2 3.2 6.4 4.8 9.6 4.8 6.4 0 11.2-4.8 11.2-11.2 0-3.2 0-4.8-1.6-6.4l-57.6-76.8 62.4-83.2c1.6-1.6 1.6-4.8 1.6-6.4 0-6.4-4.8-11.2-11.2-11.2z m230.4 0c-6.4 0-11.2 4.8-11.2 11.2v148.8l-64-156.8c-1.6-1.6-3.2-3.2-6.4-3.2s-4.8 1.6-6.4 3.2l-64 156.8v-148.8c0-6.4-4.8-11.2-11.2-11.2-8 0-12.8 4.8-12.8 11.2V211.2c0 9.6 9.6 19.2 20.8 19.2 8 0 16-4.8 19.2-12.8l54.4-134.4 54.4 134.4c3.2 8 11.2 12.8 19.2 12.8 11.2 0 20.8-9.6 20.8-19.2v-164.8c0-6.4-4.8-11.2-12.8-11.2z m169.6 1.6h-88c-9.6 0-17.6 8-17.6 17.6V219.2c0 6.4 6.4 11.2 12.8 11.2s11.2-4.8 11.2-11.2v-161.6h81.6c4.8 0 9.6-4.8 9.6-9.6 0-6.4-4.8-11.2-9.6-11.2z"  horiz-adv-x="1024" />

    
    <glyph glyph-name="HTML" unicode="&#58912;" d="M847.872 655.872v-688c0-26.56-21.408-48-48-48h-576c-26.56 0-48 21.44-48 48v832c0 26.592 21.44 48 48 48h432zM160 127.872v-160c0-35.456 28.544-64 64-64h576c35.456 0 64 28.544 64 64v160H160zM847.872 655.872h-144c-26.56 0-48 21.44-48 48v144M432.736 511.936a16 16 0 0 1-10.976-4.8l-96.96-95.776a16 16 0 0 1-0.416-0.416 16 16 0 0 1 1.664-23.808l95.68-94.56a16 16 0 1 1 22.528 22.72l-85.568 84.576 85.568 84.48a16 16 0 0 1-11.52 27.584z m157.824 0a16 16 0 0 1-11.008-27.552l85.504-84.48-85.504-84.576a16 16 0 1 1 22.496-22.752l95.648 94.56a16 16 0 0 1 5.44 17.504 16 16 0 0 1-1.28 2.912 16 16 0 0 1-0.608 1.12 16 16 0 0 1-0.192 0.256 16 16 0 0 1-0.192 0.256 16 16 0 0 1-0.8 0.992 16 16 0 0 1-0.192 0.256 16 16 0 0 1-0.864 0.96 16 16 0 0 1-0.064 0l-0.64 0.544a16 16 0 0 1-0.48 0.512l-95.776 94.688a16 16 0 0 1-11.488 4.8zM654.88 96.256a16 16 0 0 1-11.84-6.624L608 42.688l-35.136 46.944-0.128-0.064a16 16 0 0 1-13.056 6.368 16 16 0 0 1-15.744-16.192v-127.68a16 16 0 1 1 32 0v80.128l15.936-21.248a16 16 0 0 1 28.864-4.448l19.2 25.6v-80.032a16 16 0 1 1 32 0v126.816a16 16 0 0 1-15.424 17.376 16 16 0 0 1-1.632 0z m-383.136-0.32a16 16 0 0 1-15.744-16.192V-47.936a16 16 0 1 1 32 0v47.808h64v-47.808a16 16 0 1 1 32 0v61.312a16 16 0 0 1 0 5.12v61.248a16 16 0 0 1-16.256 16.192 16 16 0 0 1-15.744-16.192v-47.872H288v47.872a16 16 0 0 1-16.256 16.192z m192 0a16 16 0 0 1-1.6-0.064H432a16 16 0 1 1 0-32h16v-111.808a16 16 0 1 1 32 0v111.808h16a16 16 0 1 1 0 32h-30.304a16 16 0 0 1-1.92 0.064z m255.936 0a16 16 0 0 1-15.744-16.192v-126.496a16 16 0 0 1 0.64-5.824 16 16 0 0 1 0-0.064 16 16 0 0 1 0.096-0.416 16 16 0 0 1 0.448-1.12 16 16 0 0 1 0.864-1.824 16 16 0 0 1 0.64-0.992 16 16 0 0 1 0.192-0.32 16 16 0 0 1 0.736-0.96 16 16 0 0 1 0.832-0.864 16 16 0 0 1 0.352-0.416 16 16 0 0 1 0.832-0.704 16 16 0 0 1 0.448-0.384 16 16 0 0 1 0.352-0.32 16 16 0 0 1 1.12-0.736 16 16 0 0 1 2.464-1.248 16 16 0 0 1 0.864-0.32 16 16 0 0 1 5.376-0.864h63.552a16 16 0 1 1 0 32h-47.808v111.872a16 16 0 0 1-16.256 16.192z"  horiz-adv-x="1024" />

    
    <glyph glyph-name="json" unicode="&#58894;" d="M742.4 140.544H564.770133c-14.4384 0-26.112-12.475733-26.112-27.869867v-168.618666h28.433067L742.4 135.560533v4.983467zM742.4 196.266667v88.183466c0 15.189333 11.4688 27.477333 25.6 27.477334s25.6-12.288 25.6-27.477334v-160.136533c0-7.2192-2.645333-14.1312-7.338667-19.285333L596.087467-102.7072a24.746667 24.746667 0 0 0-18.261334-8.226133H194.56C129.536-110.933333 76.8-54.306133 76.8 15.547733V752.469333C76.8 822.306133 129.536 878.933333 194.56 878.933333h481.28C740.864 878.933333 793.6 822.306133 793.6 752.452267v-48.930134c0-15.189333-11.4688-27.477333-25.6-27.477333s-25.6 12.288-25.6 27.477333V752.469333c0 39.4752-29.7984 71.492267-66.56 71.492267H194.56c-36.7616 0-66.56-32.017067-66.56-71.509333v-736.887467c0-39.4752 29.7984-71.492267 66.56-71.492267H486.4v168.618667C486.4 158.839467 521.489067 196.266667 564.770133 196.266667H742.4zM289.058133 601.429333h33.3824l-15.581866-153.275733c-2.645333-26.026667-9.437867-45.056-20.4288-57.7536-12.1856-13.329067-29.986133-20.002133-53.674667-20.002133-20.548267 0-35.601067 6.3488-44.868267 19.0464-9.557333 12.6976-13.192533 30.139733-10.939733 52.360533l0.733867 7.304533h33.399466l-0.7168-6.997333c-2.645333-26.0096 6.024533-39.0144 26.282667-39.0144 11.127467 0 19.797333 3.805867 25.668267 11.093333 5.888 7.304533 9.642667 19.0464 11.281066 35.2256l15.4624 152.0128z m144.128 4.437334c23.978667 0 42.257067-5.393067 54.545067-16.503467 13.073067-11.741867 19.473067-30.139733 18.944-54.903467H473.6c-1.4336 13.9776-5.819733 24.132267-12.629333 30.1568-6.775467 6.3488-17.902933 9.198933-32.733867 9.198934-12.8512 0-22.7328-1.911467-30.0032-6.024534-9.045333-4.778667-13.858133-12.6976-14.9504-23.483733-0.9728-9.5232 2.798933-17.4592 11.912533-23.176533 4.027733-2.525867 15.240533-7.287467 33.399467-13.960534 26.709333-9.506133 43.6224-17.134933 51.0976-22.203733 16.503467-11.741867 23.7056-27.938133 21.572267-48.878933-2.048-20.309333-10.837333-36.488533-26.299734-48.2304-15.428267-11.434667-36.3008-17.4592-62.276266-17.4592-25.105067 0-44.253867 5.393067-57.1392 16.196266-15.7696 13.312-23.04 34.269867-21.538134 63.146667h33.109334c0.512-17.134933 4.693333-29.525333 12.8-36.8128 7.338667-6.3488 19.2512-9.8304 36.096-9.8304 14.848 0 27.101867 2.850133 36.215466 8.2432 9.147733 5.717333 14.455467 13.0048 15.428267 22.528 1.211733 12.066133-4.369067 21.589333-16.213333 28.5696-3.771733 2.218667-16.384 7.287467-38.161067 14.916267-24.200533 8.874667-39.253333 15.223467-44.868267 19.029333-14.626133 10.478933-20.7872 25.7024-18.7392 45.704533 2.030933 19.985067 11.0592 35.84 27.630934 47.274667 15.394133 11.093333 33.928533 16.503467 55.893333 16.503467z m207.223467 0c31.112533 0 54.528-11.093333 70.212267-33.621334 14.9504-21.282133 20.650667-49.527467 17.1008-84.4288-3.549867-34.901333-14.9504-62.8224-34.235734-84.087466-20.241067-22.2208-45.909333-33.3312-77.0048-33.3312-31.402667 0-54.784 11.434667-70.212266 33.6384-14.933333 21.589333-20.360533 49.5104-16.878934 83.797333 3.515733 34.577067 14.626133 62.498133 33.962667 84.0704C583.338667 594.773333 609.006933 605.866667 640.392533 605.866667z m-3.242667-32.682667c-21.128533 0-38.1952-7.936-51.5072-23.808-12.680533-15.223467-20.1728-35.5328-22.818133-61.559467-2.6112-25.7024 0.750933-46.011733 10.325333-61.252266 9.847467-15.530667 25.582933-23.466667 46.6944-23.466667 21.128533 0 38.161067 7.611733 51.0976 22.528 12.629333 14.916267 20.445867 35.5328 23.159467 62.190933 2.7136 26.658133-0.8704 47.616-10.4448 62.839467-9.864533 15.223467-25.3952 22.528-46.506667 22.528z m131.84 28.245333h33.3824l84.1216-163.4304h1.143467l16.605867 163.4304h33.672533l-23.04-226.577066h-32.529067L797.354667 540.501333h-1.143467l-16.8448-165.649066H745.984l23.04 226.577066z"  horiz-adv-x="1024" />

    
    <glyph glyph-name="file-markdown" unicode="&#59911;" d="M534 544V760H232v-752h560V502H576a42 42 0 0 0-42 42z m72.3-122H641c6.6 0 12-5.4 12-12v-272c0-6.6-5.4-12-12-12h-27.2c-6.6 0-12 5.4-12 12V314.3L535 163.7c-2-4.3-6.3-7.1-11-7.1h-24.1a12 12 0 0 0-11 7.1l-66.8 150.2V138c0-6.6-5.4-12-12-12H383c-6.6 0-12 5.4-12 12V410c0 6.6 5.4 12 12 12h35c4.8 0 9.1-2.8 11-7.2l83.2-191 83.1 191c1.9 4.4 6.2 7.2 11 7.2zM854.6 607.4L639.4 822.6c-6 6-14.1 9.4-22.6 9.4H192c-17.7 0-32-14.3-32-32v-832c0-17.7 14.3-32 32-32h640c17.7 0 32 14.3 32 32V584.7c0 8.5-3.4 16.7-9.4 22.7zM602 758.2L790.2 570H602V758.2zM792 8H232V760h302v-216a42 42 0 0 1 42-42h216v-494zM429 414.8c-1.9 4.4-6.2 7.2-11 7.2h-35c-6.6 0-12-5.4-12-12v-272c0-6.6 5.4-12 12-12h27.1c6.6 0 12 5.4 12 12V313.9l66.8-150.2a12 12 0 0 1 11-7.1H524c4.7 0 9 2.8 11 7.1l66.8 150.6V138c0-6.6 5.4-12 12-12H641c6.6 0 12 5.4 12 12V410c0 6.6-5.4 12-12 12h-34.7c-4.8 0-9.1-2.8-11-7.2l-83.1-191-83.2 191z"  horiz-adv-x="1024" />

    


  </font>
</defs>
</svg>
